<svg xmlns="http://www.w3.org/2000/svg" role="img" aria-hidden="true" style="vertical-align: -4.21ex;font-size: 10pt;font-family: 'Microsoft Sans Serif';color: Black;" viewBox="0 -2295.6 17589.4 4108.3" focusable="false" width="40.853ex" height="9.542ex" xmlns:xlink="http://www.w3.org/1999/xlink"><defs id="MathJax_SVG_glyphs"><path id="MJMATHI-64" stroke-width="1" d="M 366 683 Q 367 683 438 688 T 511 694 Q 523 694 523 686 Q 523 679 450 384 T 375 83 T 374 68 Q 374 26 402 26 Q 411 27 422 35 Q 443 55 463 131 Q 469 151 473 152 Q 475 153 483 153 H 487 H 491 Q 506 153 506 145 Q 506 140 503 129 Q 490 79 473 48 T 445 8 T 417 -8 Q 409 -10 393 -10 Q 359 -10 336 5 T 306 36 L 300 51 Q 299 52 296 50 Q 294 48 292 46 Q 233 -10 172 -10 Q 117 -10 75 30 T 33 157 Q 33 205 53 255 T 101 341 Q 148 398 195 420 T 280 442 Q 336 442 364 400 Q 369 394 369 396 Q 370 400 396 505 T 424 616 Q 424 629 417 632 T 378 637 H 357 Q 351 643 351 645 T 353 664 Q 358 683 366 683 Z M 352 326 Q 329 405 277 405 Q 242 405 210 374 T 160 293 Q 131 214 119 129 Q 119 126 119 118 T 118 106 Q 118 61 136 44 T 179 26 Q 233 26 290 98 L 298 109 L 352 326 Z" /><path id="MJMATHI-66" stroke-width="1" d="M 118 -162 Q 120 -162 124 -164 T 135 -167 T 147 -168 Q 160 -168 171 -155 T 187 -126 Q 197 -99 221 27 T 267 267 T 289 382 V 385 H 242 Q 195 385 192 387 Q 188 390 188 397 L 195 425 Q 197 430 203 430 T 250 431 Q 298 431 298 432 Q 298 434 307 482 T 319 540 Q 356 705 465 705 Q 502 703 526 683 T 550 630 Q 550 594 529 578 T 487 561 Q 443 561 443 603 Q 443 622 454 636 T 478 657 L 487 662 Q 471 668 457 668 Q 445 668 434 658 T 419 630 Q 412 601 403 552 T 387 469 T 380 433 Q 380 431 435 431 Q 480 431 487 430 T 498 424 Q 499 420 496 407 T 491 391 Q 489 386 482 386 T 428 385 H 372 L 349 263 Q 301 15 282 -47 Q 255 -132 212 -173 Q 175 -205 139 -205 Q 107 -205 81 -186 T 55 -132 Q 55 -95 76 -78 T 118 -61 Q 162 -61 162 -103 Q 162 -122 151 -136 T 127 -157 L 118 -162 Z" /><path id="MJMAIN-3D" stroke-width="1" d="M 56 347 Q 56 360 70 367 H 707 Q 722 359 722 347 Q 722 336 708 328 L 390 327 H 72 Q 56 332 56 347 Z M 56 153 Q 56 168 72 173 H 708 Q 722 163 722 153 Q 722 140 707 133 H 70 Q 56 140 56 153 Z" /><path id="MJMAIN-76" stroke-width="1" d="M 338 431 Q 344 429 422 429 Q 479 429 503 431 H 508 V 385 H 497 Q 439 381 423 345 Q 421 341 356 172 T 288 -2 Q 283 -11 263 -11 Q 244 -11 239 -2 Q 99 359 98 364 Q 93 378 82 381 T 43 385 H 19 V 431 H 25 L 33 430 Q 41 430 53 430 T 79 430 T 104 429 T 122 428 Q 217 428 232 431 H 240 V 385 H 226 Q 187 384 184 370 Q 184 366 235 234 L 286 102 L 377 341 V 349 Q 377 363 367 372 T 349 383 T 335 385 H 331 V 431 H 338 Z" /><path id="MJMAIN-61" stroke-width="1" d="M 137 305 T 115 305 T 78 320 T 63 359 Q 63 394 97 421 T 218 448 Q 291 448 336 416 T 396 340 Q 401 326 401 309 T 402 194 V 124 Q 402 76 407 58 T 428 40 Q 443 40 448 56 T 453 109 V 145 H 493 V 106 Q 492 66 490 59 Q 481 29 455 12 T 400 -6 T 353 12 T 329 54 V 58 L 327 55 Q 325 52 322 49 T 314 40 T 302 29 T 287 17 T 269 6 T 247 -2 T 221 -8 T 190 -11 Q 130 -11 82 20 T 34 107 Q 34 128 41 147 T 68 188 T 116 225 T 194 253 T 304 268 H 318 V 290 Q 318 324 312 340 Q 290 411 215 411 Q 197 411 181 410 T 156 406 T 148 403 Q 170 388 170 359 Q 170 334 154 320 Z M 126 106 Q 126 75 150 51 T 209 26 Q 247 26 276 49 T 315 109 Q 317 116 318 175 Q 318 233 317 233 Q 309 233 296 232 T 251 223 T 193 203 T 147 166 T 126 106 Z" /><path id="MJMAIN-72" stroke-width="1" d="M 36 46 H 50 Q 89 46 97 60 V 68 Q 97 77 97 91 T 98 122 T 98 161 T 98 203 Q 98 234 98 269 T 98 328 L 97 351 Q 94 370 83 376 T 38 385 H 20 V 408 Q 20 431 22 431 L 32 432 Q 42 433 60 434 T 96 436 Q 112 437 131 438 T 160 441 T 171 442 H 174 V 373 Q 213 441 271 441 H 277 Q 322 441 343 419 T 364 373 Q 364 352 351 337 T 313 322 Q 288 322 276 338 T 263 372 Q 263 381 265 388 T 270 400 T 273 405 Q 271 407 250 401 Q 234 393 226 386 Q 179 341 179 207 V 154 Q 179 141 179 127 T 179 101 T 180 81 T 180 66 V 61 Q 181 59 183 57 T 188 54 T 193 51 T 200 49 T 207 48 T 216 47 T 225 47 T 235 46 T 245 46 H 276 V 0 H 267 Q 249 3 140 3 Q 37 3 28 0 H 20 V 46 H 36 Z" /><path id="MJMAIN-5B" stroke-width="1" d="M 118 -250 V 750 H 255 V 710 H 158 V -210 H 255 V -250 H 118 Z" /><path id="MJMATHI-41" stroke-width="1" d="M 208 74 Q 208 50 254 46 Q 272 46 272 35 Q 272 34 270 22 Q 267 8 264 4 T 251 0 Q 249 0 239 0 T 205 1 T 141 2 Q 70 2 50 0 H 42 Q 35 7 35 11 Q 37 38 48 46 H 62 Q 132 49 164 96 Q 170 102 345 401 T 523 704 Q 530 716 547 716 H 555 H 572 Q 578 707 578 706 L 606 383 Q 634 60 636 57 Q 641 46 701 46 Q 726 46 726 36 Q 726 34 723 22 Q 720 7 718 4 T 704 0 Q 701 0 690 0 T 651 1 T 578 2 Q 484 2 455 0 H 443 Q 437 6 437 9 T 439 27 Q 443 40 445 43 L 449 46 H 469 Q 523 49 533 63 L 521 213 H 283 L 249 155 Q 208 86 208 74 Z M 516 260 Q 516 271 504 416 T 490 562 L 463 519 Q 447 492 400 412 L 310 260 L 413 259 Q 516 259 516 260 Z" /><path id="MJMATHI-55" stroke-width="1" d="M 107 637 Q 73 637 71 641 Q 70 643 70 649 Q 70 673 81 682 Q 83 683 98 683 Q 139 681 234 681 Q 268 681 297 681 T 342 682 T 362 682 Q 378 682 378 672 Q 378 670 376 658 Q 371 641 366 638 H 364 Q 362 638 359 638 T 352 638 T 343 637 T 334 637 Q 295 636 284 634 T 266 623 Q 265 621 238 518 T 184 302 T 154 169 Q 152 155 152 140 Q 152 86 183 55 T 269 24 Q 336 24 403 69 T 501 205 L 552 406 Q 599 598 599 606 Q 599 633 535 637 Q 511 637 511 648 Q 511 650 513 660 Q 517 676 519 679 T 529 683 Q 532 683 561 682 T 645 680 Q 696 680 723 681 T 752 682 Q 767 682 767 672 Q 767 650 759 642 Q 756 637 737 637 Q 666 633 648 597 Q 646 592 598 404 Q 557 235 548 205 Q 515 105 433 42 T 263 -22 Q 171 -22 116 34 T 60 167 V 183 Q 60 201 115 421 Q 164 622 164 628 Q 164 635 107 637 Z" /><path id="MJMATHI-43" stroke-width="1" d="M 50 252 Q 50 367 117 473 T 286 641 T 490 704 Q 580 704 633 653 Q 642 643 648 636 T 656 626 L 657 623 Q 660 623 684 649 Q 691 655 699 663 T 715 679 T 725 690 L 740 705 H 746 Q 760 705 760 698 Q 760 694 728 561 Q 692 422 692 421 Q 690 416 687 415 T 669 413 H 653 Q 647 419 647 422 Q 647 423 648 429 T 650 449 T 651 481 Q 651 552 619 605 T 510 659 Q 484 659 454 652 T 382 628 T 299 572 T 226 479 Q 194 422 175 346 T 156 222 Q 156 108 232 58 Q 280 24 350 24 Q 441 24 512 92 T 606 240 Q 610 253 612 255 T 628 257 Q 648 257 648 248 Q 648 243 647 239 Q 618 132 523 55 T 319 -22 Q 206 -22 128 53 T 50 252 Z" /><path id="MJMAIN-5E" stroke-width="1" d="M 112 560 L 249 694 L 257 686 Q 387 562 387 560 L 361 531 Q 359 532 303 581 L 250 627 L 195 580 Q 182 569 169 557 T 148 538 L 140 532 Q 138 530 125 546 L 112 560 Z" /><path id="MJSZ4-2C6" stroke-width="1" d="M 5 561 Q -4 561 -9 582 T -14 618 Q -14 623 -13 625 Q -11 628 461 736 T 943 845 Q 945 845 1417 738 T 1896 628 Q 1902 628 1902 618 Q 1902 607 1897 584 T 1883 561 Q 1881 561 1412 654 L 945 750 L 476 654 Q 6 561 5 561 Z" /><path id="MJMATHI-6B" stroke-width="1" d="M 121 647 Q 121 657 125 670 T 137 683 Q 138 683 209 688 T 282 694 Q 294 694 294 686 Q 294 679 244 477 Q 194 279 194 272 Q 213 282 223 291 Q 247 309 292 354 T 362 415 Q 402 442 438 442 Q 468 442 485 423 T 503 369 Q 503 344 496 327 T 477 302 T 456 291 T 438 288 Q 418 288 406 299 T 394 328 Q 394 353 410 369 T 442 390 L 458 393 Q 446 405 434 405 H 430 Q 398 402 367 380 T 294 316 T 228 255 Q 230 254 243 252 T 267 246 T 293 238 T 320 224 T 342 206 T 359 180 T 365 147 Q 365 130 360 106 T 354 66 Q 354 26 381 26 Q 429 26 459 145 Q 461 153 479 153 H 483 Q 499 153 499 144 Q 499 139 496 130 Q 455 -11 378 -11 Q 333 -11 305 15 T 277 90 Q 277 108 280 121 T 283 145 Q 283 167 269 183 T 234 206 T 200 217 T 182 220 H 180 Q 168 178 159 139 T 145 81 T 136 44 T 129 20 T 122 7 T 111 -2 Q 98 -11 83 -11 Q 66 -11 57 -1 T 48 16 Q 48 26 85 176 T 158 471 L 195 616 Q 196 629 188 632 T 149 637 H 144 Q 134 637 131 637 T 124 640 T 121 647 Z" /><path id="MJMAIN-5D" stroke-width="1" d="M 22 710 V 750 H 159 V -250 H 22 V -210 H 119 V 710 H 22 Z" /><path id="MJSZ2-5B" stroke-width="1" d="M 224 -649 V 1150 H 455 V 1099 H 275 V -598 H 455 V -649 H 224 Z" /><path id="MJSZ2-5D" stroke-width="1" d="M 16 1099 V 1150 H 247 V -649 H 16 V -598 H 196 V 1099 H 16 Z" /><path id="MJMAIN-32" stroke-width="1" d="M 109 429 Q 82 429 66 447 T 50 491 Q 50 562 103 614 T 235 666 Q 326 666 387 610 T 449 465 Q 449 422 429 383 T 381 315 T 301 241 Q 265 210 201 149 L 142 93 L 218 92 Q 375 92 385 97 Q 392 99 409 186 V 189 H 449 V 186 Q 448 183 436 95 T 421 3 V 0 H 50 V 19 V 31 Q 50 38 56 46 T 86 81 Q 115 113 136 137 Q 145 147 170 174 T 204 211 T 233 244 T 261 278 T 284 308 T 305 340 T 320 369 T 333 401 T 340 431 T 343 464 Q 343 527 309 573 T 212 619 Q 179 619 154 602 T 119 569 T 109 550 Q 109 549 114 549 Q 132 549 151 535 T 170 489 Q 170 464 154 447 T 109 429 Z" /><path id="MJMAIN-2F" stroke-width="1" d="M 423 750 Q 432 750 438 744 T 444 730 Q 444 725 271 248 T 92 -240 Q 85 -250 75 -250 Q 68 -250 62 -245 T 56 -231 Q 56 -221 230 257 T 407 740 Q 411 750 423 750 Z" /><path id="MJSZ2-2211" stroke-width="1" d="M 60 948 Q 63 950 665 950 H 1267 L 1325 815 Q 1384 677 1388 669 H 1348 L 1341 683 Q 1320 724 1285 761 Q 1235 809 1174 838 T 1033 881 T 882 898 T 699 902 H 574 H 543 H 251 L 259 891 Q 722 258 724 252 Q 725 250 724 246 Q 721 243 460 -56 L 196 -356 Q 196 -357 407 -357 Q 459 -357 548 -357 T 676 -358 Q 812 -358 896 -353 T 1063 -332 T 1204 -283 T 1307 -196 Q 1328 -170 1348 -124 H 1388 Q 1388 -125 1381 -145 T 1356 -210 T 1325 -294 L 1267 -449 L 666 -450 Q 64 -450 61 -448 Q 55 -446 55 -439 Q 55 -437 57 -433 L 590 177 Q 590 178 557 222 T 452 366 T 322 544 L 56 909 L 55 924 Q 55 945 60 948 Z" /><path id="MJMATHI-6A" stroke-width="1" d="M 297 596 Q 297 627 318 644 T 361 661 Q 378 661 389 651 T 403 623 Q 403 595 384 576 T 340 557 Q 322 557 310 567 T 297 596 Z M 288 376 Q 288 405 262 405 Q 240 405 220 393 T 185 362 T 161 325 T 144 293 L 137 279 Q 135 278 121 278 H 107 Q 101 284 101 286 T 105 299 Q 126 348 164 391 T 252 441 Q 253 441 260 441 T 272 442 Q 296 441 316 432 Q 341 418 354 401 T 367 348 V 332 L 318 133 Q 267 -67 264 -75 Q 246 -125 194 -164 T 75 -204 Q 25 -204 7 -183 T -12 -137 Q -12 -110 7 -91 T 53 -71 Q 70 -71 82 -81 T 95 -112 Q 95 -148 63 -167 Q 69 -168 77 -168 Q 111 -168 139 -140 T 182 -74 L 193 -32 Q 204 11 219 72 T 251 197 T 278 308 T 289 365 Q 289 372 288 376 Z" /><path id="MJMAIN-31" stroke-width="1" d="M 213 578 L 200 573 Q 186 568 160 563 T 102 556 H 83 V 602 H 102 Q 149 604 189 617 T 245 641 T 273 663 Q 275 666 285 666 Q 294 666 302 660 V 361 L 303 61 Q 310 54 315 52 T 339 48 T 401 46 H 427 V 0 H 416 Q 395 3 257 3 Q 121 3 100 0 H 88 V 46 H 114 Q 136 46 152 46 T 177 47 T 193 50 T 201 52 T 207 57 T 213 61 V 578 Z" /><path id="MJMATHI-4A" stroke-width="1" d="M 447 625 Q 447 637 354 637 H 329 Q 323 642 323 645 T 325 664 Q 329 677 335 683 H 352 Q 393 681 498 681 Q 541 681 568 681 T 605 682 T 619 682 Q 633 682 633 672 Q 633 670 630 658 Q 626 642 623 640 T 604 637 Q 552 637 545 623 Q 541 610 483 376 Q 420 128 419 127 Q 397 64 333 21 T 195 -22 Q 137 -22 97 8 T 57 88 Q 57 130 80 152 T 132 174 Q 177 174 182 130 Q 182 98 164 80 T 123 56 Q 115 54 115 53 T 122 44 Q 148 15 197 15 Q 235 15 271 47 T 324 130 Q 328 142 387 380 T 447 625 Z" /><path id="MJMATHI-77" stroke-width="1" d="M 580 385 Q 580 406 599 424 T 641 443 Q 659 443 674 425 T 690 368 Q 690 339 671 253 Q 656 197 644 161 T 609 80 T 554 12 T 482 -11 Q 438 -11 404 5 T 355 48 Q 354 47 352 44 Q 311 -11 252 -11 Q 226 -11 202 -5 T 155 14 T 118 53 T 104 116 Q 104 170 138 262 T 173 379 Q 173 380 173 381 Q 173 390 173 393 T 169 400 T 158 404 H 154 Q 131 404 112 385 T 82 344 T 65 302 T 57 280 Q 55 278 41 278 H 27 Q 21 284 21 287 Q 21 293 29 315 T 52 366 T 96 418 T 161 441 Q 204 441 227 416 T 250 358 Q 250 340 217 250 T 184 111 Q 184 65 205 46 T 258 26 Q 301 26 334 87 L 339 96 V 119 Q 339 122 339 128 T 340 136 T 341 143 T 342 152 T 345 165 T 348 182 T 354 206 T 362 238 T 373 281 Q 402 395 406 404 Q 419 431 449 431 Q 468 431 475 421 T 483 402 Q 483 389 454 274 T 422 142 Q 420 131 420 107 V 100 Q 420 85 423 71 T 442 42 T 487 26 Q 558 26 600 148 Q 609 171 620 213 T 632 273 Q 632 306 619 325 T 593 357 T 580 385 Z" /><path id="MJMAIN-34" stroke-width="1" d="M 462 0 Q 444 3 333 3 Q 217 3 199 0 H 190 V 46 H 221 Q 241 46 248 46 T 265 48 T 279 53 T 286 61 Q 287 63 287 115 V 165 H 28 V 211 L 179 442 Q 332 674 334 675 Q 336 677 355 677 H 373 L 379 671 V 211 H 471 V 165 H 379 V 114 Q 379 73 379 66 T 385 54 Q 393 47 442 46 H 471 V 0 H 462 Z M 293 211 V 545 L 74 212 L 183 211 H 293 Z" /><path id="MJMATHI-3C3" stroke-width="1" d="M 184 -11 Q 116 -11 74 34 T 31 147 Q 31 247 104 333 T 274 430 Q 275 431 414 431 H 552 Q 553 430 555 429 T 559 427 T 562 425 T 565 422 T 567 420 T 569 416 T 570 412 T 571 407 T 572 401 Q 572 357 507 357 Q 500 357 490 357 T 476 358 H 416 L 421 348 Q 439 310 439 263 Q 439 153 359 71 T 184 -11 Z M 361 278 Q 361 358 276 358 Q 152 358 115 184 Q 114 180 114 178 Q 106 141 106 117 Q 106 67 131 47 T 188 26 Q 242 26 287 73 Q 316 103 334 153 T 356 233 T 361 278 Z" /><path id="MJMATHI-6E" stroke-width="1" d="M 21 287 Q 22 293 24 303 T 36 341 T 56 388 T 89 425 T 135 442 Q 171 442 195 424 T 225 390 T 231 369 Q 231 367 232 367 L 243 378 Q 304 442 382 442 Q 436 442 469 415 T 503 336 T 465 179 T 427 52 Q 427 26 444 26 Q 450 26 453 27 Q 482 32 505 65 T 540 145 Q 542 153 560 153 Q 580 153 580 145 Q 580 144 576 130 Q 568 101 554 73 T 508 17 T 439 -10 Q 392 -10 371 17 T 350 73 Q 350 92 386 193 T 423 345 Q 423 404 379 404 H 374 Q 288 404 229 303 L 222 291 L 189 157 Q 156 26 151 16 Q 138 -11 108 -11 Q 95 -11 87 -5 T 76 7 T 74 17 Q 74 30 112 180 T 152 343 Q 153 348 153 366 Q 153 405 129 405 Q 91 405 66 305 Q 60 285 60 284 Q 58 278 41 278 H 27 Q 21 284 21 287 Z" /><path id="MJMAIN-28" stroke-width="1" d="M 94 250 Q 94 319 104 381 T 127 488 T 164 576 T 202 643 T 244 695 T 277 729 T 302 750 H 315 H 319 Q 333 750 333 741 Q 333 738 316 720 T 275 667 T 226 581 T 184 443 T 167 250 T 184 58 T 225 -81 T 274 -167 T 316 -220 T 333 -241 Q 333 -250 318 -250 H 315 H 302 L 274 -226 Q 180 -141 137 -14 T 94 250 Z" /><path id="MJMAIN-2212" stroke-width="1" d="M 84 237 T 84 250 T 98 270 H 679 Q 694 262 694 250 T 679 230 H 98 Q 84 237 84 250 Z" /><path id="MJMAIN-29" stroke-width="1" d="M 60 749 L 64 750 Q 69 750 74 750 H 86 L 114 726 Q 208 641 251 514 T 294 250 Q 294 182 284 119 T 261 12 T 224 -76 T 186 -143 T 145 -194 T 113 -227 T 90 -246 Q 87 -249 86 -250 H 74 Q 66 -250 63 -250 T 58 -247 T 55 -238 Q 56 -237 66 -225 Q 221 -64 221 250 T 66 725 Q 56 737 55 738 Q 55 746 60 749 Z" /><path id="MJSZ2-28" stroke-width="1" d="M 180 96 T 180 250 T 205 541 T 266 770 T 353 944 T 444 1069 T 527 1150 H 555 Q 561 1144 561 1141 Q 561 1137 545 1120 T 504 1072 T 447 995 T 386 878 T 330 721 T 288 513 T 272 251 Q 272 133 280 56 Q 293 -87 326 -209 T 399 -405 T 475 -531 T 536 -609 T 561 -640 Q 561 -643 555 -649 H 527 Q 483 -612 443 -568 T 353 -443 T 266 -270 T 205 -41 Z" /><path id="MJSZ2-29" stroke-width="1" d="M 35 1138 Q 35 1150 51 1150 H 56 H 69 Q 113 1113 153 1069 T 243 944 T 330 771 T 391 541 T 416 250 T 391 -40 T 330 -270 T 243 -443 T 152 -568 T 69 -649 H 56 Q 43 -649 39 -647 T 35 -637 Q 65 -607 110 -548 Q 283 -316 316 56 Q 324 133 324 251 Q 324 368 316 445 Q 278 877 48 1123 Q 36 1137 35 1138 Z" /><path id="MJSZ4-23A1" stroke-width="1" d="M 319 -645 V 1154 H 666 V 1070 H 403 V -645 H 319 Z" /><path id="MJSZ4-23A3" stroke-width="1" d="M 319 -644 V 1155 H 403 V -560 H 666 V -644 H 319 Z" /><path id="MJSZ4-23A2" stroke-width="1" d="M 319 0 V 602 H 403 V 0 H 319 Z" /><path id="MJSZ4-23A4" stroke-width="1" d="M 0 1070 V 1154 H 347 V -645 H 263 V 1070 H 0 Z" /><path id="MJSZ4-23A6" stroke-width="1" d="M 263 -560 V 1155 H 347 V -644 H 0 V -560 H 263 Z" /><path id="MJSZ4-23A5" stroke-width="1" d="M 263 0 V 602 H 347 V 0 H 263 Z" /></defs><g fill="currentColor" stroke="currentColor" stroke-width="0" transform="matrix(1 0 0 -1 0 0)"><use x="0" y="0" xmlns:NS2="http://www.w3.org/1999/xlink" NS2:href="#MJMATHI-64" /><use x="523" y="0" xmlns:NS3="http://www.w3.org/1999/xlink" NS3:href="#MJMATHI-66" /><use x="1351" y="0" xmlns:NS4="http://www.w3.org/1999/xlink" NS4:href="#MJMAIN-3D" /><g transform="translate(2408)"><use xmlns:NS5="http://www.w3.org/1999/xlink" NS5:href="#MJMAIN-76" /><use x="528" y="0" xmlns:NS6="http://www.w3.org/1999/xlink" NS6:href="#MJMAIN-61" /><use x="1029" y="0" xmlns:NS7="http://www.w3.org/1999/xlink" NS7:href="#MJMAIN-72" /><use x="1421" y="-1" xmlns:NS8="http://www.w3.org/1999/xlink" NS8:href="#MJSZ2-5B" /><g transform="translate(1894)"><use x="0" y="0" xmlns:NS9="http://www.w3.org/1999/xlink" NS9:href="#MJMATHI-41" /><use x="750" y="0" xmlns:NS10="http://www.w3.org/1999/xlink" NS10:href="#MJMATHI-55" /><use x="1518" y="0" xmlns:NS11="http://www.w3.org/1999/xlink" NS11:href="#MJMATHI-43" /><use x="223" y="217" xmlns:NS12="http://www.w3.org/1999/xlink" NS12:href="#MJSZ4-2C6" /><use transform="scale(0.707)" x="3222" y="-213" xmlns:NS13="http://www.w3.org/1999/xlink" NS13:href="#MJMATHI-6B" /></g><use x="4641" y="-1" xmlns:NS14="http://www.w3.org/1999/xlink" NS14:href="#MJSZ2-5D" /><use transform="scale(0.707)" x="7231" y="1240" xmlns:NS15="http://www.w3.org/1999/xlink" NS15:href="#MJMAIN-32" /></g><use x="7975" y="0" xmlns:NS16="http://www.w3.org/1999/xlink" NS16:href="#MJMAIN-2F" /><g transform="translate(8642)"><g transform="translate(0 2241)"><use x="0" y="-1155" xmlns:NS17="http://www.w3.org/1999/xlink" NS17:href="#MJSZ4-23A1" /><g transform="translate(0 -2231.4) scale(1 0.796678)"><use xmlns:NS18="http://www.w3.org/1999/xlink" NS18:href="#MJSZ4-23A2" /></g><use x="0" y="-3339" xmlns:NS19="http://www.w3.org/1999/xlink" NS19:href="#MJSZ4-23A3" /></g><g transform="translate(667)"><use x="0" y="0" xmlns:NS20="http://www.w3.org/1999/xlink" NS20:href="#MJSZ2-2211" /><g transform="translate(124 -1090)"><use transform="scale(0.707)" x="0" y="0" xmlns:NS21="http://www.w3.org/1999/xlink" NS21:href="#MJMATHI-6A" /><use transform="scale(0.707)" x="412" y="0" xmlns:NS22="http://www.w3.org/1999/xlink" NS22:href="#MJMAIN-3D" /><use transform="scale(0.707)" x="1191" y="0" xmlns:NS23="http://www.w3.org/1999/xlink" NS23:href="#MJMAIN-31" /></g><use transform="scale(0.707)" x="704" y="1627" xmlns:NS24="http://www.w3.org/1999/xlink" NS24:href="#MJMATHI-4A" /></g><g transform="translate(2112)"><g transform="translate(286)"><rect stroke="none" x="0" y="220" width="5760" height="60" /><g transform="translate(1475 912)"><use x="0" y="0" xmlns:NS25="http://www.w3.org/1999/xlink" NS25:href="#MJMATHI-77" /><use transform="scale(0.707)" x="1013" y="488" xmlns:NS26="http://www.w3.org/1999/xlink" NS26:href="#MJMAIN-34" /><g transform="translate(716 -327)"><use transform="scale(0.707)" x="0" y="0" xmlns:NS27="http://www.w3.org/1999/xlink" NS27:href="#MJMATHI-6A" /><use transform="scale(0.707)" x="412" y="0" xmlns:NS28="http://www.w3.org/1999/xlink" NS28:href="#MJMATHI-6B" /></g><g transform="translate(1476)"><use x="0" y="0" xmlns:NS29="http://www.w3.org/1999/xlink" NS29:href="#MJMATHI-3C3" /><use transform="scale(0.707)" x="810" y="488" xmlns:NS30="http://www.w3.org/1999/xlink" NS30:href="#MJMAIN-34" /><g transform="translate(571 -327)"><use transform="scale(0.707)" x="0" y="0" xmlns:NS31="http://www.w3.org/1999/xlink" NS31:href="#MJMATHI-6A" /><use transform="scale(0.707)" x="412" y="0" xmlns:NS32="http://www.w3.org/1999/xlink" NS32:href="#MJMATHI-6B" /></g></g></g><g transform="translate(60 -1092)"><use x="0" y="0" xmlns:NS33="http://www.w3.org/1999/xlink" NS33:href="#MJMATHI-6E" /><use transform="scale(0.707)" x="849" y="488" xmlns:NS34="http://www.w3.org/1999/xlink" NS34:href="#MJMAIN-32" /><g transform="translate(600 -327)"><use transform="scale(0.707)" x="0" y="0" xmlns:NS35="http://www.w3.org/1999/xlink" NS35:href="#MJMATHI-6A" /><use transform="scale(0.707)" x="412" y="0" xmlns:NS36="http://www.w3.org/1999/xlink" NS36:href="#MJMATHI-6B" /></g><use x="1360" y="-1" xmlns:NS37="http://www.w3.org/1999/xlink" NS37:href="#MJSZ2-28" /><g transform="translate(1958)"><use x="0" y="0" xmlns:NS38="http://www.w3.org/1999/xlink" NS38:href="#MJMATHI-6E" /><g transform="translate(600 -150)"><use transform="scale(0.707)" x="0" y="0" xmlns:NS39="http://www.w3.org/1999/xlink" NS39:href="#MJMATHI-6A" /><use transform="scale(0.707)" x="412" y="0" xmlns:NS40="http://www.w3.org/1999/xlink" NS40:href="#MJMATHI-6B" /></g></g><use x="3541" y="0" xmlns:NS41="http://www.w3.org/1999/xlink" NS41:href="#MJMAIN-2212" /><use x="4542" y="0" xmlns:NS42="http://www.w3.org/1999/xlink" NS42:href="#MJMAIN-31" /><use x="5042" y="-1" xmlns:NS43="http://www.w3.org/1999/xlink" NS43:href="#MJSZ2-29" /></g></g></g><g transform="translate(8278 2241)"><use x="0" y="-1155" xmlns:NS44="http://www.w3.org/1999/xlink" NS44:href="#MJSZ4-23A4" /><g transform="translate(0 -2231.4) scale(1 0.796678)"><use xmlns:NS45="http://www.w3.org/1999/xlink" NS45:href="#MJSZ4-23A5" /></g><use x="0" y="-3339" xmlns:NS46="http://www.w3.org/1999/xlink" NS46:href="#MJSZ4-23A6" /></g></g></g></svg>