<svg xmlns="http://www.w3.org/2000/svg" role="img" aria-hidden="true" style="margin-left: -0.08ex;vertical-align: -16.12ex;font-size: 10pt;font-family: 'Microsoft Sans Serif';color: Black;" viewBox="-38.5 -1571.3 14649.8 8514.5" focusable="false" width="34.025ex" height="19.776ex" xmlns:xlink="http://www.w3.org/1999/xlink"><defs id="MathJax_SVG_glyphs"><path id="MJMATHI-6E" stroke-width="1" d="M 21 287 Q 22 293 24 303 T 36 341 T 56 388 T 89 425 T 135 442 Q 171 442 195 424 T 225 390 T 231 369 Q 231 367 232 367 L 243 378 Q 304 442 382 442 Q 436 442 469 415 T 503 336 T 465 179 T 427 52 Q 427 26 444 26 Q 450 26 453 27 Q 482 32 505 65 T 540 145 Q 542 153 560 153 Q 580 153 580 145 Q 580 144 576 130 Q 568 101 554 73 T 508 17 T 439 -10 Q 392 -10 371 17 T 350 73 Q 350 92 386 193 T 423 345 Q 423 404 379 404 H 374 Q 288 404 229 303 L 222 291 L 189 157 Q 156 26 151 16 Q 138 -11 108 -11 Q 95 -11 87 -5 T 76 7 T 74 17 Q 74 30 112 180 T 152 343 Q 153 348 153 366 Q 153 405 129 405 Q 91 405 66 305 Q 60 285 60 284 Q 58 278 41 278 H 27 Q 21 284 21 287 Z" /><path id="MJMAIN-3D" stroke-width="1" d="M 56 347 Q 56 360 70 367 H 707 Q 722 359 722 347 Q 722 336 708 328 L 390 327 H 72 Q 56 332 56 347 Z M 56 153 Q 56 168 72 173 H 708 Q 722 163 722 153 Q 722 140 707 133 H 70 Q 56 140 56 153 Z" /><path id="MJMAIN-28" stroke-width="1" d="M 94 250 Q 94 319 104 381 T 127 488 T 164 576 T 202 643 T 244 695 T 277 729 T 302 750 H 315 H 319 Q 333 750 333 741 Q 333 738 316 720 T 275 667 T 226 581 T 184 443 T 167 250 T 184 58 T 225 -81 T 274 -167 T 316 -220 T 333 -241 Q 333 -250 318 -250 H 315 H 302 L 274 -226 Q 180 -141 137 -14 T 94 250 Z" /><path id="MJMATHI-7A" stroke-width="1" d="M 347 338 Q 337 338 294 349 T 231 360 Q 211 360 197 356 T 174 346 T 162 335 T 155 324 L 153 320 Q 150 317 138 317 Q 117 317 117 325 Q 117 330 120 339 Q 133 378 163 406 T 229 440 Q 241 442 246 442 Q 271 442 291 425 T 329 392 T 367 375 Q 389 375 411 408 T 434 441 Q 435 442 449 442 H 462 Q 468 436 468 434 Q 468 430 463 420 T 449 399 T 432 377 T 418 358 L 411 349 Q 368 298 275 214 T 160 106 L 148 94 L 163 93 Q 185 93 227 82 T 290 71 Q 328 71 360 90 T 402 140 Q 406 149 409 151 T 424 153 Q 443 153 443 143 Q 443 138 442 134 Q 425 72 376 31 T 278 -11 Q 252 -11 232 6 T 193 40 T 155 57 Q 111 57 76 -3 Q 70 -11 59 -11 H 54 H 41 Q 35 -5 35 -2 Q 35 13 93 84 Q 132 129 225 214 T 340 322 Q 352 338 347 338 Z" /><path id="MJMATHI-3B1" stroke-width="1" d="M 34 156 Q 34 270 120 356 T 309 442 Q 379 442 421 402 T 478 304 Q 484 275 485 237 V 208 Q 534 282 560 374 Q 564 388 566 390 T 582 393 Q 603 393 603 385 Q 603 376 594 346 T 558 261 T 497 161 L 486 147 L 487 123 Q 489 67 495 47 T 514 26 Q 528 28 540 37 T 557 60 Q 559 67 562 68 T 577 70 Q 597 70 597 62 Q 597 56 591 43 Q 579 19 556 5 T 512 -10 H 505 Q 438 -10 414 62 L 411 69 L 400 61 Q 390 53 370 41 T 325 18 T 267 -2 T 203 -11 Q 124 -11 79 39 T 34 156 Z M 208 26 Q 257 26 306 47 T 379 90 L 403 112 Q 401 255 396 290 Q 382 405 304 405 Q 235 405 183 332 Q 156 292 139 224 T 121 120 Q 121 71 146 49 T 208 26 Z" /><path id="MJMAIN-2F" stroke-width="1" d="M 423 750 Q 432 750 438 744 T 444 730 Q 444 725 271 248 T 92 -240 Q 85 -250 75 -250 Q 68 -250 62 -245 T 56 -231 Q 56 -221 230 257 T 407 740 Q 411 750 423 750 Z" /><path id="MJMAIN-32" stroke-width="1" d="M 109 429 Q 82 429 66 447 T 50 491 Q 50 562 103 614 T 235 666 Q 326 666 387 610 T 449 465 Q 449 422 429 383 T 381 315 T 301 241 Q 265 210 201 149 L 142 93 L 218 92 Q 375 92 385 97 Q 392 99 409 186 V 189 H 449 V 186 Q 448 183 436 95 T 421 3 V 0 H 50 V 19 V 31 Q 50 38 56 46 T 86 81 Q 115 113 136 137 Q 145 147 170 174 T 204 211 T 233 244 T 261 278 T 284 308 T 305 340 T 320 369 T 333 401 T 340 431 T 343 464 Q 343 527 309 573 T 212 619 Q 179 619 154 602 T 119 569 T 109 550 Q 109 549 114 549 Q 132 549 151 535 T 170 489 Q 170 464 154 447 T 109 429 Z" /><path id="MJMAIN-2B" stroke-width="1" d="M 56 237 T 56 250 T 70 270 H 369 V 420 L 370 570 Q 380 583 389 583 Q 402 583 409 568 V 270 H 707 Q 722 262 722 250 T 707 230 H 409 V -68 Q 401 -82 391 -82 H 389 H 387 Q 375 -82 369 -68 V 230 H 70 Q 56 237 56 250 Z" /><path id="MJMATHI-3B2" stroke-width="1" d="M 29 -194 Q 23 -188 23 -186 Q 23 -183 102 134 T 186 465 Q 208 533 243 584 T 309 658 Q 365 705 429 705 H 431 Q 493 705 533 667 T 573 570 Q 573 465 469 396 L 482 383 Q 533 332 533 252 Q 533 139 448 65 T 257 -10 Q 227 -10 203 -2 T 165 17 T 143 40 T 131 59 T 126 65 L 62 -188 Q 60 -194 42 -194 H 29 Z M 353 431 Q 392 431 427 419 L 432 422 Q 436 426 439 429 T 449 439 T 461 453 T 472 471 T 484 495 T 493 524 T 501 560 Q 503 569 503 593 Q 503 611 502 616 Q 487 667 426 667 Q 384 667 347 643 T 286 582 T 247 514 T 224 455 Q 219 439 186 308 T 152 168 Q 151 163 151 147 Q 151 99 173 68 Q 204 26 260 26 Q 302 26 349 51 T 425 137 Q 441 171 449 214 T 457 279 Q 457 337 422 372 Q 380 358 347 358 H 337 Q 258 358 258 389 Q 258 396 261 403 Q 275 431 353 431 Z" /><path id="MJMAIN-29" stroke-width="1" d="M 60 749 L 64 750 Q 69 750 74 750 H 86 L 114 726 Q 208 641 251 514 T 294 250 Q 294 182 284 119 T 261 12 T 224 -76 T 186 -143 T 145 -194 T 113 -227 T 90 -246 Q 87 -249 86 -250 H 74 Q 66 -250 63 -250 T 58 -247 T 55 -238 Q 56 -237 66 -225 Q 221 -64 221 250 T 66 725 Q 56 737 55 738 Q 55 746 60 749 Z" /><path id="MJSZ1-28" stroke-width="1" d="M 152 251 Q 152 646 388 850 H 416 Q 422 844 422 841 Q 422 837 403 816 T 357 753 T 302 649 T 255 482 T 236 250 Q 236 124 255 19 T 301 -147 T 356 -251 T 403 -315 T 422 -340 Q 422 -343 416 -349 H 388 Q 359 -325 332 -296 T 271 -213 T 212 -97 T 170 56 T 152 251 Z" /><path id="MJSZ1-29" stroke-width="1" d="M 305 251 Q 305 -145 69 -349 H 56 Q 43 -349 39 -347 T 35 -338 Q 37 -333 60 -307 T 108 -239 T 160 -136 T 204 27 T 221 250 T 204 473 T 160 636 T 108 740 T 60 807 T 35 839 Q 35 850 50 850 H 56 H 69 Q 197 743 256 566 Q 305 425 305 251 Z" /><path id="MJMAIN-31" stroke-width="1" d="M 213 578 L 200 573 Q 186 568 160 563 T 102 556 H 83 V 602 H 102 Q 149 604 189 617 T 245 641 T 273 663 Q 275 666 285 666 Q 294 666 302 660 V 361 L 303 61 Q 310 54 315 52 T 339 48 T 401 46 H 427 V 0 H 416 Q 395 3 257 3 Q 121 3 100 0 H 88 V 46 H 114 Q 136 46 152 46 T 177 47 T 193 50 T 201 52 T 207 57 T 213 61 V 578 Z" /><path id="MJMATHI-6D" stroke-width="1" d="M 21 287 Q 22 293 24 303 T 36 341 T 56 388 T 88 425 T 132 442 T 175 435 T 205 417 T 221 395 T 229 376 L 231 369 Q 231 367 232 367 L 243 378 Q 303 442 384 442 Q 401 442 415 440 T 441 433 T 460 423 T 475 411 T 485 398 T 493 385 T 497 373 T 500 364 T 502 357 L 510 367 Q 573 442 659 442 Q 713 442 746 415 T 780 336 Q 780 285 742 178 T 704 50 Q 705 36 709 31 T 724 26 Q 752 26 776 56 T 815 138 Q 818 149 821 151 T 837 153 Q 857 153 857 145 Q 857 144 853 130 Q 845 101 831 73 T 785 17 T 716 -10 Q 669 -10 648 17 T 627 73 Q 627 92 663 193 T 700 345 Q 700 404 656 404 H 651 Q 565 404 506 303 L 499 291 L 466 157 Q 433 26 428 16 Q 415 -11 385 -11 Q 372 -11 364 -4 T 353 8 T 350 18 Q 350 29 384 161 L 420 307 Q 423 322 423 345 Q 423 404 379 404 H 374 Q 288 404 229 303 L 222 291 L 189 157 Q 156 26 151 16 Q 138 -11 108 -11 Q 95 -11 87 -5 T 76 7 T 74 17 Q 74 30 112 181 Q 151 335 151 342 Q 154 357 154 369 Q 154 405 129 405 Q 107 405 92 377 T 69 316 T 57 280 Q 55 278 41 278 H 27 Q 21 284 21 287 Z" /><path id="MJMATHI-70" stroke-width="1" d="M 23 287 Q 24 290 25 295 T 30 317 T 40 348 T 55 381 T 75 411 T 101 433 T 134 442 Q 209 442 230 378 L 240 387 Q 302 442 358 442 Q 423 442 460 395 T 497 281 Q 497 173 421 82 T 249 -10 Q 227 -10 210 -4 Q 199 1 187 11 T 168 28 L 161 36 Q 160 35 139 -51 T 118 -138 Q 118 -144 126 -145 T 163 -148 H 188 Q 194 -155 194 -157 T 191 -175 Q 188 -187 185 -190 T 172 -194 Q 170 -194 161 -194 T 127 -193 T 65 -192 Q -5 -192 -24 -194 H -32 Q -39 -187 -39 -183 Q -37 -156 -26 -148 H -6 Q 28 -147 33 -136 Q 36 -130 94 103 T 155 350 Q 156 355 156 364 Q 156 405 131 405 Q 109 405 94 377 T 71 316 T 59 280 Q 57 278 43 278 H 29 Q 23 284 23 287 Z M 178 102 Q 200 26 252 26 Q 282 26 310 49 T 356 107 Q 374 141 392 215 T 411 325 V 331 Q 411 405 350 405 Q 339 405 328 402 T 306 393 T 286 380 T 269 365 T 254 350 T 243 336 T 235 326 L 232 322 Q 232 321 229 308 T 218 264 T 204 212 Q 178 106 178 102 Z" /><path id="MJMAIN-6C" stroke-width="1" d="M 42 46 H 56 Q 95 46 103 60 V 68 Q 103 77 103 91 T 103 124 T 104 167 T 104 217 T 104 272 T 104 329 Q 104 366 104 407 T 104 482 T 104 542 T 103 586 T 103 603 Q 100 622 89 628 T 44 637 H 26 V 660 Q 26 683 28 683 L 38 684 Q 48 685 67 686 T 104 688 Q 121 689 141 690 T 171 693 T 182 694 H 185 V 379 Q 185 62 186 60 Q 190 52 198 49 Q 219 46 247 46 H 263 V 0 H 255 L 232 1 Q 209 2 183 2 T 145 3 T 107 3 T 57 1 L 34 0 H 26 V 46 H 42 Z" /><path id="MJMAIN-6E" stroke-width="1" d="M 41 46 H 55 Q 94 46 102 60 V 68 Q 102 77 102 91 T 102 122 T 103 161 T 103 203 Q 103 234 103 269 T 102 328 V 351 Q 99 370 88 376 T 43 385 H 25 V 408 Q 25 431 27 431 L 37 432 Q 47 433 65 434 T 102 436 Q 119 437 138 438 T 167 441 T 178 442 H 181 V 402 Q 181 364 182 364 T 187 369 T 199 384 T 218 402 T 247 421 T 285 437 Q 305 442 336 442 Q 450 438 463 329 Q 464 322 464 190 V 104 Q 464 66 466 59 T 477 49 Q 498 46 526 46 H 542 V 0 H 534 L 510 1 Q 487 2 460 2 T 422 3 Q 319 3 310 0 H 302 V 46 H 318 Q 379 46 379 62 Q 380 64 380 200 Q 379 335 378 343 Q 372 371 358 385 T 334 402 T 308 404 Q 263 404 229 370 Q 202 343 195 315 T 187 232 V 168 V 108 Q 187 78 188 68 T 191 55 T 200 49 Q 221 46 249 46 H 265 V 0 H 257 L 234 1 Q 210 2 183 2 T 145 3 Q 42 3 33 0 H 25 V 46 H 41 Z" /><path id="MJMATHI-72" stroke-width="1" d="M 21 287 Q 22 290 23 295 T 28 317 T 38 348 T 53 381 T 73 411 T 99 433 T 132 442 Q 161 442 183 430 T 214 408 T 225 388 Q 227 382 228 382 T 236 389 Q 284 441 347 441 H 350 Q 398 441 422 400 Q 430 381 430 363 Q 430 333 417 315 T 391 292 T 366 288 Q 346 288 334 299 T 322 328 Q 322 376 378 392 Q 356 405 342 405 Q 286 405 239 331 Q 229 315 224 298 T 190 165 Q 156 25 151 16 Q 138 -11 108 -11 Q 95 -11 87 -5 T 76 7 T 74 17 Q 74 30 114 189 T 154 366 Q 154 405 128 405 Q 107 405 92 377 T 68 316 T 57 280 Q 55 278 41 278 H 27 Q 21 284 21 287 Z" /><path id="MJSZ3-28" stroke-width="1" d="M 701 -940 Q 701 -943 695 -949 H 664 Q 662 -947 636 -922 T 591 -879 T 537 -818 T 475 -737 T 412 -636 T 350 -511 T 295 -362 T 250 -186 T 221 17 T 209 251 Q 209 962 573 1361 Q 596 1386 616 1405 T 649 1437 T 664 1450 H 695 Q 701 1444 701 1441 Q 701 1436 681 1415 T 629 1356 T 557 1261 T 476 1118 T 400 927 T 340 675 T 308 359 Q 306 321 306 250 Q 306 -139 400 -430 T 690 -924 Q 701 -936 701 -940 Z" /><path id="MJSZ3-29" stroke-width="1" d="M 34 1438 Q 34 1446 37 1448 T 50 1450 H 56 H 71 Q 73 1448 99 1423 T 144 1380 T 198 1319 T 260 1238 T 323 1137 T 385 1013 T 440 864 T 485 688 T 514 485 T 526 251 Q 526 134 519 53 Q 472 -519 162 -860 Q 139 -885 119 -904 T 86 -936 T 71 -949 H 56 Q 43 -949 39 -947 T 34 -937 Q 88 -883 140 -813 Q 428 -430 428 251 Q 428 453 402 628 T 338 922 T 245 1146 T 145 1309 T 46 1425 Q 44 1427 42 1429 T 39 1433 T 36 1436 L 34 1438 Z" /><path id="MJMAIN-2212" stroke-width="1" d="M 84 237 T 84 250 T 98 270 H 679 Q 694 262 694 250 T 679 230 H 98 Q 84 237 84 250 Z" /><path id="MJMATHI-61" stroke-width="1" d="M 33 157 Q 33 258 109 349 T 280 441 Q 331 441 370 392 Q 386 422 416 422 Q 429 422 439 414 T 449 394 Q 449 381 412 234 T 374 68 Q 374 43 381 35 T 402 26 Q 411 27 422 35 Q 443 55 463 131 Q 469 151 473 152 Q 475 153 483 153 H 487 Q 506 153 506 144 Q 506 138 501 117 T 481 63 T 449 13 Q 436 0 417 -8 Q 409 -10 393 -10 Q 359 -10 336 5 T 306 36 L 300 51 Q 299 52 296 50 Q 294 48 292 46 Q 233 -10 172 -10 Q 117 -10 75 30 T 33 157 Z M 351 328 Q 351 334 346 350 T 323 385 T 277 405 Q 242 405 210 374 T 160 293 Q 131 214 119 129 Q 119 126 119 118 T 118 106 Q 118 61 136 44 T 179 26 Q 217 26 254 59 T 298 110 Q 300 114 325 217 T 351 328 Z" /><path id="MJMAIN-65" stroke-width="1" d="M 28 218 Q 28 273 48 318 T 98 391 T 163 433 T 229 448 Q 282 448 320 430 T 378 380 T 406 316 T 415 245 Q 415 238 408 231 H 126 V 216 Q 126 68 226 36 Q 246 30 270 30 Q 312 30 342 62 Q 359 79 369 104 L 379 128 Q 382 131 395 131 H 398 Q 415 131 415 121 Q 415 117 412 108 Q 393 53 349 21 T 250 -11 Q 155 -11 92 58 T 28 218 Z M 333 275 Q 322 403 238 411 H 236 Q 228 411 220 410 T 195 402 T 166 381 T 143 340 T 127 274 V 267 H 333 V 275 Z" /><path id="MJMAIN-78" stroke-width="1" d="M 201 0 Q 189 3 102 3 Q 26 3 17 0 H 11 V 46 H 25 Q 48 47 67 52 T 96 61 T 121 78 T 139 96 T 160 122 T 180 150 L 226 210 L 168 288 Q 159 301 149 315 T 133 336 T 122 351 T 113 363 T 107 370 T 100 376 T 94 379 T 88 381 T 80 383 Q 74 383 44 385 H 16 V 431 H 23 Q 59 429 126 429 Q 219 429 229 431 H 237 V 385 Q 201 381 201 369 Q 201 367 211 353 T 239 315 T 268 274 L 272 270 L 297 304 Q 329 345 329 358 Q 329 364 327 369 T 322 376 T 317 380 T 310 384 L 307 385 H 302 V 431 H 309 Q 324 428 408 428 Q 487 428 493 431 H 499 V 385 H 492 Q 443 385 411 368 Q 394 360 377 341 T 312 257 L 296 236 L 358 151 Q 424 61 429 57 T 446 50 Q 464 46 499 46 H 516 V 0 H 510 H 502 Q 494 1 482 1 T 457 2 T 432 2 T 414 3 Q 403 3 377 3 T 327 1 L 304 0 H 295 V 46 H 298 Q 309 46 320 51 T 331 63 Q 331 65 291 120 L 250 175 Q 249 174 219 133 T 185 88 Q 181 83 181 74 Q 181 63 188 55 T 206 46 Q 208 46 208 23 V 0 H 201 Z" /><path id="MJMAIN-70" stroke-width="1" d="M 36 -148 H 50 Q 89 -148 97 -134 V -126 Q 97 -119 97 -107 T 97 -77 T 98 -38 T 98 6 T 98 55 T 98 106 Q 98 140 98 177 T 98 243 T 98 296 T 97 335 T 97 351 Q 94 370 83 376 T 38 385 H 20 V 408 Q 20 431 22 431 L 32 432 Q 42 433 61 434 T 98 436 Q 115 437 135 438 T 165 441 T 176 442 H 179 V 416 L 180 390 L 188 397 Q 247 441 326 441 Q 407 441 464 377 T 522 216 Q 522 115 457 52 T 310 -11 Q 242 -11 190 33 L 182 40 V -45 V -101 Q 182 -128 184 -134 T 195 -145 Q 216 -148 244 -148 H 260 V -194 H 252 L 228 -193 Q 205 -192 178 -192 T 140 -191 Q 37 -191 28 -194 H 20 V -148 H 36 Z M 424 218 Q 424 292 390 347 T 305 402 Q 234 402 182 337 V 98 Q 222 26 294 26 Q 345 26 384 80 T 424 218 Z" /><path id="MJMATHI-46" stroke-width="1" d="M 48 1 Q 31 1 31 11 Q 31 13 34 25 Q 38 41 42 43 T 65 46 Q 92 46 125 49 Q 139 52 144 61 Q 146 66 215 342 T 285 622 Q 285 629 281 629 Q 273 632 228 634 H 197 Q 191 640 191 642 T 193 659 Q 197 676 203 680 H 742 Q 749 676 749 669 Q 749 664 736 557 T 722 447 Q 720 440 702 440 H 690 Q 683 445 683 453 Q 683 454 686 477 T 689 530 Q 689 560 682 579 T 663 610 T 626 626 T 575 633 T 503 634 H 480 Q 398 633 393 631 Q 388 629 386 623 Q 385 622 352 492 L 320 363 H 375 Q 378 363 398 363 T 426 364 T 448 367 T 472 374 T 489 386 Q 502 398 511 419 T 524 457 T 529 475 Q 532 480 548 480 H 560 Q 567 475 567 470 Q 567 467 536 339 T 502 207 Q 500 200 482 200 H 470 Q 463 206 463 212 Q 463 215 468 234 T 473 274 Q 473 303 453 310 T 364 317 H 309 L 277 190 Q 245 66 245 60 Q 245 46 334 46 H 359 Q 365 40 365 39 T 363 19 Q 359 6 353 0 H 336 Q 295 2 185 2 Q 120 2 86 2 T 48 1 Z" /><path id="MJMATHI-74" stroke-width="1" d="M 26 385 Q 19 392 19 395 Q 19 399 22 411 T 27 425 Q 29 430 36 430 T 87 431 H 140 L 159 511 Q 162 522 166 540 T 173 566 T 179 586 T 187 603 T 197 615 T 211 624 T 229 626 Q 247 625 254 615 T 261 596 Q 261 589 252 549 T 232 470 L 222 433 Q 222 431 272 431 H 323 Q 330 424 330 420 Q 330 398 317 385 H 210 L 174 240 Q 135 80 135 68 Q 135 26 162 26 Q 197 26 230 60 T 283 144 Q 285 150 288 151 T 303 153 H 307 Q 322 153 322 145 Q 322 142 319 133 Q 314 117 301 95 T 267 48 T 216 6 T 155 -11 Q 125 -11 98 4 T 59 56 Q 57 64 57 83 V 101 L 92 241 Q 127 382 128 383 Q 128 385 77 385 H 26 Z" /><path id="MJMAIN-AF" stroke-width="1" d="M 69 544 V 590 H 430 V 544 H 69 Z" /><path id="MJMATHI-41" stroke-width="1" d="M 208 74 Q 208 50 254 46 Q 272 46 272 35 Q 272 34 270 22 Q 267 8 264 4 T 251 0 Q 249 0 239 0 T 205 1 T 141 2 Q 70 2 50 0 H 42 Q 35 7 35 11 Q 37 38 48 46 H 62 Q 132 49 164 96 Q 170 102 345 401 T 523 704 Q 530 716 547 716 H 555 H 572 Q 578 707 578 706 L 606 383 Q 634 60 636 57 Q 641 46 701 46 Q 726 46 726 36 Q 726 34 723 22 Q 720 7 718 4 T 704 0 Q 701 0 690 0 T 651 1 T 578 2 Q 484 2 455 0 H 443 Q 437 6 437 9 T 439 27 Q 443 40 445 43 L 449 46 H 469 Q 523 49 533 63 L 521 213 H 283 L 249 155 Q 208 86 208 74 Z M 516 260 Q 516 271 504 416 T 490 562 L 463 519 Q 447 492 400 412 L 310 260 L 413 259 Q 516 259 516 260 Z" /><path id="MJMATHI-43" stroke-width="1" d="M 50 252 Q 50 367 117 473 T 286 641 T 490 704 Q 580 704 633 653 Q 642 643 648 636 T 656 626 L 657 623 Q 660 623 684 649 Q 691 655 699 663 T 715 679 T 725 690 L 740 705 H 746 Q 760 705 760 698 Q 760 694 728 561 Q 692 422 692 421 Q 690 416 687 415 T 669 413 H 653 Q 647 419 647 422 Q 647 423 648 429 T 650 449 T 651 481 Q 651 552 619 605 T 510 659 Q 484 659 454 652 T 382 628 T 299 572 T 226 479 Q 194 422 175 346 T 156 222 Q 156 108 232 58 Q 280 24 350 24 Q 441 24 512 92 T 606 240 Q 610 253 612 255 T 628 257 Q 648 257 648 248 Q 648 243 647 239 Q 618 132 523 55 T 319 -22 Q 206 -22 128 53 T 50 252 Z" /><path id="MJMATHI-45" stroke-width="1" d="M 492 213 Q 472 213 472 226 Q 472 230 477 250 T 482 285 Q 482 316 461 323 T 364 330 H 312 Q 311 328 277 192 T 243 52 Q 243 48 254 48 T 334 46 Q 428 46 458 48 T 518 61 Q 567 77 599 117 T 670 248 Q 680 270 683 272 Q 690 274 698 274 Q 718 274 718 261 Q 613 7 608 2 Q 605 0 322 0 H 133 Q 31 0 31 11 Q 31 13 34 25 Q 38 41 42 43 T 65 46 Q 92 46 125 49 Q 139 52 144 61 Q 146 66 215 342 T 285 622 Q 285 629 281 629 Q 273 632 228 634 H 197 Q 191 640 191 642 T 193 659 Q 197 676 203 680 H 757 Q 764 676 764 669 Q 764 664 751 557 T 737 447 Q 735 440 717 440 H 705 Q 698 445 698 453 L 701 476 Q 704 500 704 528 Q 704 558 697 578 T 678 609 T 643 625 T 596 632 T 532 634 H 485 Q 397 633 392 631 Q 388 629 386 622 Q 385 619 355 499 T 324 377 Q 347 376 372 376 H 398 Q 464 376 489 391 T 534 472 Q 538 488 540 490 T 557 493 Q 562 493 565 493 T 570 492 T 572 491 T 574 487 T 577 483 L 544 351 Q 511 218 508 216 Q 505 213 492 213 Z" /></defs><g fill="currentColor" stroke="currentColor" stroke-width="0" transform="matrix(1 0 0 -1 0 0)"><use x="0" y="0" xmlns:NS2="http://www.w3.org/1999/xlink" NS2:href="#MJMATHI-6E" /><use x="878" y="0" xmlns:NS3="http://www.w3.org/1999/xlink" NS3:href="#MJMAIN-3D" /><g transform="translate(1934)"><use xmlns:NS4="http://www.w3.org/1999/xlink" NS4:href="#MJSZ1-28" /><g transform="translate(458)"><use x="0" y="0" xmlns:NS5="http://www.w3.org/1999/xlink" NS5:href="#MJMATHI-7A" /><g transform="translate(465 -187)"><use transform="scale(0.707)" x="0" y="0" xmlns:NS6="http://www.w3.org/1999/xlink" NS6:href="#MJMATHI-3B1" /><use transform="scale(0.707)" x="640" y="0" xmlns:NS7="http://www.w3.org/1999/xlink" NS7:href="#MJMAIN-2F" /><use transform="scale(0.707)" x="1141" y="0" xmlns:NS8="http://www.w3.org/1999/xlink" NS8:href="#MJMAIN-32" /></g></g><use x="2406" y="0" xmlns:NS9="http://www.w3.org/1999/xlink" NS9:href="#MJMAIN-2B" /><g transform="translate(3407)"><use x="0" y="0" xmlns:NS10="http://www.w3.org/1999/xlink" NS10:href="#MJMATHI-7A" /><use transform="scale(0.707)" x="658" y="-219" xmlns:NS11="http://www.w3.org/1999/xlink" NS11:href="#MJMATHI-3B2" /></g><use x="4378" y="-1" xmlns:NS12="http://www.w3.org/1999/xlink" NS12:href="#MJSZ1-29" /><use transform="scale(0.707)" x="6840" y="816" xmlns:NS13="http://www.w3.org/1999/xlink" NS13:href="#MJMAIN-32" /></g><g transform="translate(7392)"><use xmlns:NS14="http://www.w3.org/1999/xlink" NS14:href="#MJSZ3-28" /><g transform="translate(736)"><g transform="translate(120)"><rect stroke="none" x="0" y="220" width="5505" height="60" /><g transform="translate(60 741)"><use x="0" y="0" xmlns:NS15="http://www.w3.org/1999/xlink" NS15:href="#MJMAIN-28" /><use x="389" y="0" xmlns:NS16="http://www.w3.org/1999/xlink" NS16:href="#MJMAIN-31" /><use x="1112" y="0" xmlns:NS17="http://www.w3.org/1999/xlink" NS17:href="#MJMAIN-2B" /><use x="2112" y="0" xmlns:NS18="http://www.w3.org/1999/xlink" NS18:href="#MJMAIN-31" /><use x="2613" y="0" xmlns:NS19="http://www.w3.org/1999/xlink" NS19:href="#MJMAIN-2F" /><use x="3113" y="0" xmlns:NS20="http://www.w3.org/1999/xlink" NS20:href="#MJMATHI-6D" /><use x="3992" y="0" xmlns:NS21="http://www.w3.org/1999/xlink" NS21:href="#MJMAIN-29" /><use x="4381" y="0" xmlns:NS22="http://www.w3.org/1999/xlink" NS22:href="#MJMAIN-2F" /><use x="4882" y="0" xmlns:NS23="http://www.w3.org/1999/xlink" NS23:href="#MJMATHI-70" /></g><g transform="translate(1493 -752)"><use xmlns:NS24="http://www.w3.org/1999/xlink" NS24:href="#MJMAIN-6C" /><use x="278" y="0" xmlns:NS25="http://www.w3.org/1999/xlink" NS25:href="#MJMAIN-6E" /><use x="835" y="0" xmlns:NS26="http://www.w3.org/1999/xlink" NS26:href="#MJMAIN-28" /><use x="1224" y="0" xmlns:NS27="http://www.w3.org/1999/xlink" NS27:href="#MJMATHI-72" /><g transform="translate(1676)"><use x="0" y="0" xmlns:NS28="http://www.w3.org/1999/xlink" NS28:href="#MJMAIN-29" /><use transform="scale(0.707)" x="550" y="408" xmlns:NS29="http://www.w3.org/1999/xlink" NS29:href="#MJMAIN-32" /></g></g></g></g><use x="6482" y="-1" xmlns:NS30="http://www.w3.org/1999/xlink" NS30:href="#MJSZ3-29" /></g><g transform="translate(0 -2199)"><use x="0" y="0" xmlns:NS31="http://www.w3.org/1999/xlink" NS31:href="#MJMATHI-70" /><use x="781" y="0" xmlns:NS32="http://www.w3.org/1999/xlink" NS32:href="#MJMAIN-3D" /><use x="1837" y="0" xmlns:NS33="http://www.w3.org/1999/xlink" NS33:href="#MJMAIN-31" /><use x="2560" y="0" xmlns:NS34="http://www.w3.org/1999/xlink" NS34:href="#MJMAIN-2212" /><g transform="translate(3561)"><use x="0" y="0" xmlns:NS35="http://www.w3.org/1999/xlink" NS35:href="#MJMATHI-70" /><use transform="scale(0.707)" x="712" y="-213" xmlns:NS36="http://www.w3.org/1999/xlink" NS36:href="#MJMATHI-61" /></g><g transform="translate(4705)"><use xmlns:NS37="http://www.w3.org/1999/xlink" NS37:href="#MJMAIN-65" /><use x="444" y="0" xmlns:NS38="http://www.w3.org/1999/xlink" NS38:href="#MJMAIN-78" /><use x="973" y="0" xmlns:NS39="http://www.w3.org/1999/xlink" NS39:href="#MJMAIN-70" /></g><use x="6235" y="0" xmlns:NS40="http://www.w3.org/1999/xlink" NS40:href="#MJMAIN-28" /><use x="6624" y="0" xmlns:NS41="http://www.w3.org/1999/xlink" NS41:href="#MJMAIN-2212" /><g transform="translate(7569)"><use xmlns:NS42="http://www.w3.org/1999/xlink" NS42:href="#MJMAIN-6C" /><use x="278" y="0" xmlns:NS43="http://www.w3.org/1999/xlink" NS43:href="#MJMAIN-6E" /></g><use x="8404" y="0" xmlns:NS44="http://www.w3.org/1999/xlink" NS44:href="#MJMAIN-28" /><use x="8794" y="0" xmlns:NS45="http://www.w3.org/1999/xlink" NS45:href="#MJMAIN-32" /><use x="9294" y="0" xmlns:NS46="http://www.w3.org/1999/xlink" NS46:href="#MJMAIN-29" /><use x="9684" y="0" xmlns:NS47="http://www.w3.org/1999/xlink" NS47:href="#MJMATHI-46" /><use x="10433" y="0" xmlns:NS48="http://www.w3.org/1999/xlink" NS48:href="#MJMAIN-2F" /><g transform="translate(10934)"><use x="69" y="0" xmlns:NS49="http://www.w3.org/1999/xlink" NS49:href="#MJMATHI-74" /><use x="83" y="174" xmlns:NS50="http://www.w3.org/1999/xlink" NS50:href="#MJMAIN-AF" /></g><use x="11518" y="0" xmlns:NS51="http://www.w3.org/1999/xlink" NS51:href="#MJMAIN-29" /></g><g transform="translate(0 -4388)"><use x="0" y="0" xmlns:NS52="http://www.w3.org/1999/xlink" NS52:href="#MJMATHI-70" /><use transform="scale(0.707)" x="712" y="-213" xmlns:NS53="http://www.w3.org/1999/xlink" NS53:href="#MJMATHI-61" /><use x="1255" y="0" xmlns:NS54="http://www.w3.org/1999/xlink" NS54:href="#MJMAIN-3D" /><g transform="translate(2034)"><g transform="translate(397)"><rect stroke="none" x="0" y="220" width="9046" height="60" /><g transform="translate(60 741)"><use x="0" y="0" xmlns:NS55="http://www.w3.org/1999/xlink" NS55:href="#MJMAIN-31" /><use x="722" y="0" xmlns:NS56="http://www.w3.org/1999/xlink" NS56:href="#MJMAIN-2212" /><g transform="translate(1723)"><use xmlns:NS57="http://www.w3.org/1999/xlink" NS57:href="#MJMAIN-65" /><use x="444" y="0" xmlns:NS58="http://www.w3.org/1999/xlink" NS58:href="#MJMAIN-78" /><use x="973" y="0" xmlns:NS59="http://www.w3.org/1999/xlink" NS59:href="#MJMAIN-70" /></g><use x="3252" y="0" xmlns:NS60="http://www.w3.org/1999/xlink" NS60:href="#MJMAIN-28" /><use x="3642" y="0" xmlns:NS61="http://www.w3.org/1999/xlink" NS61:href="#MJMAIN-2212" /><g transform="translate(4587)"><use xmlns:NS62="http://www.w3.org/1999/xlink" NS62:href="#MJMAIN-6C" /><use x="278" y="0" xmlns:NS63="http://www.w3.org/1999/xlink" NS63:href="#MJMAIN-6E" /></g><use x="5422" y="0" xmlns:NS64="http://www.w3.org/1999/xlink" NS64:href="#MJMAIN-28" /><use x="5812" y="0" xmlns:NS65="http://www.w3.org/1999/xlink" NS65:href="#MJMAIN-32" /><use x="6312" y="0" xmlns:NS66="http://www.w3.org/1999/xlink" NS66:href="#MJMAIN-29" /><use x="6702" y="0" xmlns:NS67="http://www.w3.org/1999/xlink" NS67:href="#MJMATHI-41" /><use x="7452" y="0" xmlns:NS68="http://www.w3.org/1999/xlink" NS68:href="#MJMAIN-2F" /><g transform="translate(7953)"><use x="69" y="0" xmlns:NS69="http://www.w3.org/1999/xlink" NS69:href="#MJMATHI-74" /><use x="83" y="174" xmlns:NS70="http://www.w3.org/1999/xlink" NS70:href="#MJMAIN-AF" /></g><use x="8536" y="0" xmlns:NS71="http://www.w3.org/1999/xlink" NS71:href="#MJMAIN-29" /></g><g transform="translate(2548 -757)"><use xmlns:NS72="http://www.w3.org/1999/xlink" NS72:href="#MJMAIN-6C" /><use x="278" y="0" xmlns:NS73="http://www.w3.org/1999/xlink" NS73:href="#MJMAIN-6E" /><use x="835" y="0" xmlns:NS74="http://www.w3.org/1999/xlink" NS74:href="#MJMAIN-28" /><use x="1224" y="0" xmlns:NS75="http://www.w3.org/1999/xlink" NS75:href="#MJMAIN-32" /><use x="1725" y="0" xmlns:NS76="http://www.w3.org/1999/xlink" NS76:href="#MJMAIN-29" /><use x="2114" y="0" xmlns:NS77="http://www.w3.org/1999/xlink" NS77:href="#MJMATHI-41" /><use x="2865" y="0" xmlns:NS78="http://www.w3.org/1999/xlink" NS78:href="#MJMAIN-2F" /><g transform="translate(3365)"><use x="69" y="0" xmlns:NS79="http://www.w3.org/1999/xlink" NS79:href="#MJMATHI-74" /><use x="83" y="174" xmlns:NS80="http://www.w3.org/1999/xlink" NS80:href="#MJMAIN-AF" /></g></g></g></g></g><g transform="translate(0 -6592)"><use x="69" y="0" xmlns:NS81="http://www.w3.org/1999/xlink" NS81:href="#MJMATHI-74" /><use x="83" y="174" xmlns:NS82="http://www.w3.org/1999/xlink" NS82:href="#MJMAIN-AF" /><use x="861" y="0" xmlns:NS83="http://www.w3.org/1999/xlink" NS83:href="#MJMAIN-3D" /><use x="1917" y="0" xmlns:NS84="http://www.w3.org/1999/xlink" NS84:href="#MJMAIN-28" /><use x="2307" y="0" xmlns:NS85="http://www.w3.org/1999/xlink" NS85:href="#MJMATHI-43" /><use x="3290" y="0" xmlns:NS86="http://www.w3.org/1999/xlink" NS86:href="#MJMAIN-2B" /><use x="4290" y="0" xmlns:NS87="http://www.w3.org/1999/xlink" NS87:href="#MJMATHI-45" /><use x="5055" y="0" xmlns:NS88="http://www.w3.org/1999/xlink" NS88:href="#MJMAIN-29" /><use x="5444" y="0" xmlns:NS89="http://www.w3.org/1999/xlink" NS89:href="#MJMAIN-2F" /><use x="5945" y="0" xmlns:NS90="http://www.w3.org/1999/xlink" NS90:href="#MJMAIN-32" /></g></g></svg>