<svg xmlns="http://www.w3.org/2000/svg" role="img" aria-hidden="true" style="margin-left: -0.08ex;vertical-align: -30.42ex;font-size: 10pt;font-family: 'Microsoft Sans Serif';color: Black;" viewBox="-38.5 -726.3 14567.4 13826" focusable="false" width="33.834ex" height="32.112ex" xmlns:xlink="http://www.w3.org/1999/xlink"><defs id="MathJax_SVG_glyphs"><path id="MJMATHI-67" stroke-width="1" d="M 311 43 Q 296 30 267 15 T 206 0 Q 143 0 105 45 T 66 160 Q 66 265 143 353 T 314 442 Q 361 442 401 394 L 404 398 Q 406 401 409 404 T 418 412 T 431 419 T 447 422 Q 461 422 470 413 T 480 394 Q 480 379 423 152 T 363 -80 Q 345 -134 286 -169 T 151 -205 Q 10 -205 10 -137 Q 10 -111 28 -91 T 74 -71 Q 89 -71 102 -80 T 116 -111 Q 116 -121 114 -130 T 107 -144 T 99 -154 T 92 -162 L 90 -164 H 91 Q 101 -167 151 -167 Q 189 -167 211 -155 Q 234 -144 254 -122 T 282 -75 Q 288 -56 298 -13 Q 311 35 311 43 Z M 384 328 L 380 339 Q 377 350 375 354 T 369 368 T 359 382 T 346 393 T 328 402 T 306 405 Q 262 405 221 352 Q 191 313 171 233 T 151 117 Q 151 38 213 38 Q 269 38 323 108 L 331 118 L 384 328 Z" /><path id="MJMAIN-2217" stroke-width="1" d="M 229 286 Q 216 420 216 436 Q 216 454 240 464 Q 241 464 245 464 T 251 465 Q 263 464 273 456 T 283 436 Q 283 419 277 356 T 270 286 L 328 328 Q 384 369 389 372 T 399 375 Q 412 375 423 365 T 435 338 Q 435 325 425 315 Q 420 312 357 282 T 289 250 L 355 219 L 425 184 Q 434 175 434 161 Q 434 146 425 136 T 401 125 Q 393 125 383 131 T 328 171 L 270 213 Q 283 79 283 63 Q 283 53 276 44 T 250 35 Q 231 35 224 44 T 216 63 Q 216 80 222 143 T 229 213 L 171 171 Q 115 130 110 127 Q 106 124 100 124 Q 87 124 76 134 T 64 161 Q 64 166 64 169 T 67 175 T 72 181 T 81 188 T 94 195 T 113 204 T 138 215 T 170 230 T 210 250 L 74 315 Q 65 324 65 338 Q 65 353 74 363 T 98 374 Q 106 374 116 368 T 171 328 L 229 286 Z" /><path id="MJMATHI-70" stroke-width="1" d="M 23 287 Q 24 290 25 295 T 30 317 T 40 348 T 55 381 T 75 411 T 101 433 T 134 442 Q 209 442 230 378 L 240 387 Q 302 442 358 442 Q 423 442 460 395 T 497 281 Q 497 173 421 82 T 249 -10 Q 227 -10 210 -4 Q 199 1 187 11 T 168 28 L 161 36 Q 160 35 139 -51 T 118 -138 Q 118 -144 126 -145 T 163 -148 H 188 Q 194 -155 194 -157 T 191 -175 Q 188 -187 185 -190 T 172 -194 Q 170 -194 161 -194 T 127 -193 T 65 -192 Q -5 -192 -24 -194 H -32 Q -39 -187 -39 -183 Q -37 -156 -26 -148 H -6 Q 28 -147 33 -136 Q 36 -130 94 103 T 155 350 Q 156 355 156 364 Q 156 405 131 405 Q 109 405 94 377 T 71 316 T 59 280 Q 57 278 43 278 H 29 Q 23 284 23 287 Z M 178 102 Q 200 26 252 26 Q 282 26 310 49 T 356 107 Q 374 141 392 215 T 411 325 V 331 Q 411 405 350 405 Q 339 405 328 402 T 306 393 T 286 380 T 269 365 T 254 350 T 243 336 T 235 326 L 232 322 Q 232 321 229 308 T 218 264 T 204 212 Q 178 106 178 102 Z" /><path id="MJMAIN-31" stroke-width="1" d="M 213 578 L 200 573 Q 186 568 160 563 T 102 556 H 83 V 602 H 102 Q 149 604 189 617 T 245 641 T 273 663 Q 275 666 285 666 Q 294 666 302 660 V 361 L 303 61 Q 310 54 315 52 T 339 48 T 401 46 H 427 V 0 H 416 Q 395 3 257 3 Q 121 3 100 0 H 88 V 46 H 114 Q 136 46 152 46 T 177 47 T 193 50 T 201 52 T 207 57 T 213 61 V 578 Z" /><path id="MJMAIN-2C" stroke-width="1" d="M 78 35 T 78 60 T 94 103 T 137 121 Q 165 121 187 96 T 210 8 Q 210 -27 201 -60 T 180 -117 T 154 -158 T 130 -185 T 117 -194 Q 113 -194 104 -185 T 95 -172 Q 95 -168 106 -156 T 131 -126 T 157 -76 T 173 -3 V 9 L 172 8 Q 170 7 167 6 T 161 3 T 152 1 T 140 0 Q 113 0 96 17 Z" /><path id="MJMAIN-32" stroke-width="1" d="M 109 429 Q 82 429 66 447 T 50 491 Q 50 562 103 614 T 235 666 Q 326 666 387 610 T 449 465 Q 449 422 429 383 T 381 315 T 301 241 Q 265 210 201 149 L 142 93 L 218 92 Q 375 92 385 97 Q 392 99 409 186 V 189 H 449 V 186 Q 448 183 436 95 T 421 3 V 0 H 50 V 19 V 31 Q 50 38 56 46 T 86 81 Q 115 113 136 137 Q 145 147 170 174 T 204 211 T 233 244 T 261 278 T 284 308 T 305 340 T 320 369 T 333 401 T 340 431 T 343 464 Q 343 527 309 573 T 212 619 Q 179 619 154 602 T 119 569 T 109 550 Q 109 549 114 549 Q 132 549 151 535 T 170 489 Q 170 464 154 447 T 109 429 Z" /><path id="MJMAIN-3D" stroke-width="1" d="M 56 347 Q 56 360 70 367 H 707 Q 722 359 722 347 Q 722 336 708 328 L 390 327 H 72 Q 56 332 56 347 Z M 56 153 Q 56 168 72 173 H 708 Q 722 163 722 153 Q 722 140 707 133 H 70 Q 56 140 56 153 Z" /><path id="MJMATHI-3D5" stroke-width="1" d="M 409 688 Q 413 694 421 694 H 429 H 442 Q 448 688 448 686 Q 448 679 418 563 Q 411 535 404 504 T 392 458 L 388 442 Q 388 441 397 441 T 429 435 T 477 418 Q 521 397 550 357 T 579 260 T 548 151 T 471 65 T 374 11 T 279 -10 H 275 L 251 -105 Q 245 -128 238 -160 Q 230 -192 227 -198 T 215 -205 H 209 Q 189 -205 189 -198 Q 189 -193 211 -103 L 234 -11 Q 234 -10 226 -10 Q 221 -10 206 -8 T 161 6 T 107 36 T 62 89 T 43 171 Q 43 231 76 284 T 157 370 T 254 422 T 342 441 Q 347 441 348 445 L 378 567 Q 409 686 409 688 Z M 122 150 Q 122 116 134 91 T 167 53 T 203 35 T 237 27 H 244 L 337 404 Q 333 404 326 403 T 297 395 T 255 379 T 211 350 T 170 304 Q 152 276 137 237 Q 122 191 122 150 Z M 500 282 Q 500 320 484 347 T 444 385 T 405 400 T 381 404 H 378 L 332 217 L 284 29 Q 284 27 285 27 Q 293 27 317 33 T 357 47 Q 400 66 431 100 T 475 170 T 494 234 T 500 282 Z" /><path id="MJMAIN-5B" stroke-width="1" d="M 118 -250 V 750 H 255 V 710 H 158 V -210 H 255 V -250 H 118 Z" /><path id="MJMATHI-7A" stroke-width="1" d="M 347 338 Q 337 338 294 349 T 231 360 Q 211 360 197 356 T 174 346 T 162 335 T 155 324 L 153 320 Q 150 317 138 317 Q 117 317 117 325 Q 117 330 120 339 Q 133 378 163 406 T 229 440 Q 241 442 246 442 Q 271 442 291 425 T 329 392 T 367 375 Q 389 375 411 408 T 434 441 Q 435 442 449 442 H 462 Q 468 436 468 434 Q 468 430 463 420 T 449 399 T 432 377 T 418 358 L 411 349 Q 368 298 275 214 T 160 106 L 148 94 L 163 93 Q 185 93 227 82 T 290 71 Q 328 71 360 90 T 402 140 Q 406 149 409 151 T 424 153 Q 443 153 443 143 Q 443 138 442 134 Q 425 72 376 31 T 278 -11 Q 252 -11 232 6 T 193 40 T 155 57 Q 111 57 76 -3 Q 70 -11 59 -11 H 54 H 41 Q 35 -5 35 -2 Q 35 13 93 84 Q 132 129 225 214 T 340 322 Q 352 338 347 338 Z" /><path id="MJMAIN-30" stroke-width="1" d="M 96 585 Q 152 666 249 666 Q 297 666 345 640 T 423 548 Q 460 465 460 320 Q 460 165 417 83 Q 397 41 362 16 T 301 -15 T 250 -22 Q 224 -22 198 -16 T 137 16 T 82 83 Q 39 165 39 320 Q 39 494 96 585 Z M 321 597 Q 291 629 250 629 Q 208 629 178 597 Q 153 571 145 525 T 137 333 Q 137 175 145 125 T 181 46 Q 209 16 250 16 Q 290 16 318 46 Q 347 76 354 130 T 362 333 Q 362 478 354 524 T 321 597 Z" /><path id="MJMAIN-2B" stroke-width="1" d="M 56 237 T 56 250 T 70 270 H 369 V 420 L 370 570 Q 380 583 389 583 Q 402 583 409 568 V 270 H 707 Q 722 262 722 250 T 707 230 H 409 V -68 Q 401 -82 391 -82 H 389 H 387 Q 375 -82 369 -68 V 230 H 70 Q 56 237 56 250 Z" /><path id="MJMAIN-2212" stroke-width="1" d="M 84 237 T 84 250 T 98 270 H 679 Q 694 262 694 250 T 679 230 H 98 Q 84 237 84 250 Z" /><path id="MJMATHI-3B1" stroke-width="1" d="M 34 156 Q 34 270 120 356 T 309 442 Q 379 442 421 402 T 478 304 Q 484 275 485 237 V 208 Q 534 282 560 374 Q 564 388 566 390 T 582 393 Q 603 393 603 385 Q 603 376 594 346 T 558 261 T 497 161 L 486 147 L 487 123 Q 489 67 495 47 T 514 26 Q 528 28 540 37 T 557 60 Q 559 67 562 68 T 577 70 Q 597 70 597 62 Q 597 56 591 43 Q 579 19 556 5 T 512 -10 H 505 Q 438 -10 414 62 L 411 69 L 400 61 Q 390 53 370 41 T 325 18 T 267 -2 T 203 -11 Q 124 -11 79 39 T 34 156 Z M 208 26 Q 257 26 306 47 T 379 90 L 403 112 Q 401 255 396 290 Q 382 405 304 405 Q 235 405 183 332 Q 156 292 139 224 T 121 120 Q 121 71 146 49 T 208 26 Z" /><path id="MJMAIN-2F" stroke-width="1" d="M 423 750 Q 432 750 438 744 T 444 730 Q 444 725 271 248 T 92 -240 Q 85 -250 75 -250 Q 68 -250 62 -245 T 56 -231 Q 56 -221 230 257 T 407 740 Q 411 750 423 750 Z" /><path id="MJMATHI-61" stroke-width="1" d="M 33 157 Q 33 258 109 349 T 280 441 Q 331 441 370 392 Q 386 422 416 422 Q 429 422 439 414 T 449 394 Q 449 381 412 234 T 374 68 Q 374 43 381 35 T 402 26 Q 411 27 422 35 Q 443 55 463 131 Q 469 151 473 152 Q 475 153 483 153 H 487 Q 506 153 506 144 Q 506 138 501 117 T 481 63 T 449 13 Q 436 0 417 -8 Q 409 -10 393 -10 Q 359 -10 336 5 T 306 36 L 300 51 Q 299 52 296 50 Q 294 48 292 46 Q 233 -10 172 -10 Q 117 -10 75 30 T 33 157 Z M 351 328 Q 351 334 346 350 T 323 385 T 277 405 Q 242 405 210 374 T 160 293 Q 131 214 119 129 Q 119 126 119 118 T 118 106 Q 118 61 136 44 T 179 26 Q 217 26 254 59 T 298 110 Q 300 114 325 217 T 351 328 Z" /><path id="MJMAIN-28" stroke-width="1" d="M 94 250 Q 94 319 104 381 T 127 488 T 164 576 T 202 643 T 244 695 T 277 729 T 302 750 H 315 H 319 Q 333 750 333 741 Q 333 738 316 720 T 275 667 T 226 581 T 184 443 T 167 250 T 184 58 T 225 -81 T 274 -167 T 316 -220 T 333 -241 Q 333 -250 318 -250 H 315 H 302 L 274 -226 Q 180 -141 137 -14 T 94 250 Z" /><path id="MJMAIN-29" stroke-width="1" d="M 60 749 L 64 750 Q 69 750 74 750 H 86 L 114 726 Q 208 641 251 514 T 294 250 Q 294 182 284 119 T 261 12 T 224 -76 T 186 -143 T 145 -194 T 113 -227 T 90 -246 Q 87 -249 86 -250 H 74 Q 66 -250 63 -250 T 58 -247 T 55 -238 Q 56 -237 66 -225 Q 221 -64 221 250 T 66 725 Q 56 737 55 738 Q 55 746 60 749 Z" /><path id="MJMAIN-5D" stroke-width="1" d="M 22 710 V 750 H 159 V -250 H 22 V -210 H 119 V 710 H 22 Z" /><path id="MJSZ4-5B" stroke-width="1" d="M 269 -1249 V 1750 H 577 V 1677 H 342 V -1176 H 577 V -1249 H 269 Z" /><path id="MJSZ4-5D" stroke-width="1" d="M 5 1677 V 1750 H 313 V -1249 H 5 V -1176 H 240 V 1677 H 5 Z" /><path id="MJMAIN-23" stroke-width="1" d="M 56 347 Q 56 360 70 367 H 313 L 355 524 Q 394 676 401 686 Q 406 694 416 694 Q 434 694 436 676 Q 436 672 396 522 Q 355 374 355 369 L 354 367 H 543 L 585 524 Q 626 679 630 685 Q 636 694 646 694 Q 653 694 659 689 T 665 678 Q 665 668 626 522 Q 585 374 585 369 L 584 367 H 762 Q 777 359 777 347 Q 777 334 767 331 T 722 327 H 667 H 572 L 552 251 L 531 174 Q 531 173 647 173 H 720 Q 756 173 766 170 T 777 153 T 762 133 H 519 L 477 -24 Q 436 -179 432 -185 Q 426 -194 416 -194 Q 409 -194 403 -189 T 397 -177 Q 397 -167 436 -21 Q 477 125 477 131 L 478 133 H 289 L 247 -24 Q 206 -179 202 -185 Q 196 -194 186 -194 Q 179 -194 173 -189 T 167 -177 Q 167 -167 206 -21 Q 247 125 247 131 L 248 133 H 70 Q 56 140 56 153 Q 56 168 72 173 H 260 L 280 249 L 301 326 Q 301 327 186 327 H 72 Q 56 332 56 347 Z M 531 326 Q 531 327 437 327 H 342 L 322 251 L 301 174 Q 301 173 395 173 H 490 L 510 249 L 531 326 Z" /><path id="MJMAIN-3C" stroke-width="1" d="M 694 -11 T 694 -19 T 688 -33 T 678 -40 Q 671 -40 524 29 T 234 166 L 90 235 Q 83 240 83 250 Q 83 261 91 266 Q 664 540 678 540 Q 681 540 687 534 T 694 519 T 687 505 Q 686 504 417 376 L 151 250 L 417 124 Q 686 -4 687 -5 Q 694 -11 694 -19 Z" /><path id="MJMATHI-47" stroke-width="1" d="M 50 252 Q 50 367 117 473 T 286 641 T 490 704 Q 580 704 633 653 Q 642 643 648 636 T 656 626 L 657 623 Q 660 623 684 649 Q 691 655 699 663 T 715 679 T 725 690 L 740 705 H 746 Q 760 705 760 698 Q 760 694 728 561 Q 692 422 692 421 Q 690 416 687 415 T 669 413 H 653 Q 647 419 647 422 Q 647 423 648 429 T 650 449 T 651 481 Q 651 552 619 605 T 510 659 Q 492 659 471 656 T 418 643 T 357 615 T 294 567 T 236 496 T 189 394 T 158 260 Q 156 242 156 221 Q 156 173 170 136 T 206 79 T 256 45 T 308 28 T 353 24 Q 407 24 452 47 T 514 106 Q 517 114 529 161 T 541 214 Q 541 222 528 224 T 468 227 H 431 Q 425 233 425 235 T 427 254 Q 431 267 437 273 H 454 Q 494 271 594 271 Q 634 271 659 271 T 695 272 T 707 272 Q 721 272 721 263 Q 721 261 719 249 Q 714 230 709 228 Q 706 227 694 227 Q 674 227 653 224 Q 646 221 643 215 T 629 164 Q 620 131 614 108 Q 589 6 586 3 Q 584 1 581 1 Q 571 1 553 21 T 530 52 Q 530 53 528 52 T 522 47 Q 448 -22 322 -22 Q 201 -22 126 55 T 50 252 Z" /><path id="MJMATHI-6B" stroke-width="1" d="M 121 647 Q 121 657 125 670 T 137 683 Q 138 683 209 688 T 282 694 Q 294 694 294 686 Q 294 679 244 477 Q 194 279 194 272 Q 213 282 223 291 Q 247 309 292 354 T 362 415 Q 402 442 438 442 Q 468 442 485 423 T 503 369 Q 503 344 496 327 T 477 302 T 456 291 T 438 288 Q 418 288 406 299 T 394 328 Q 394 353 410 369 T 442 390 L 458 393 Q 446 405 434 405 H 430 Q 398 402 367 380 T 294 316 T 228 255 Q 230 254 243 252 T 267 246 T 293 238 T 320 224 T 342 206 T 359 180 T 365 147 Q 365 130 360 106 T 354 66 Q 354 26 381 26 Q 429 26 459 145 Q 461 153 479 153 H 483 Q 499 153 499 144 Q 499 139 496 130 Q 455 -11 378 -11 Q 333 -11 305 15 T 277 90 Q 277 108 280 121 T 283 145 Q 283 167 269 183 T 234 206 T 200 217 T 182 220 H 180 Q 168 178 159 139 T 145 81 T 136 44 T 129 20 T 122 7 T 111 -2 Q 98 -11 83 -11 Q 66 -11 57 -1 T 48 16 Q 48 26 85 176 T 158 471 L 195 616 Q 196 629 188 632 T 149 637 H 144 Q 134 637 131 637 T 124 640 T 121 647 Z" /><path id="MJSZ1-2211" stroke-width="1" d="M 61 748 Q 64 750 489 750 H 913 L 954 640 Q 965 609 976 579 T 993 533 T 999 516 H 979 L 959 517 Q 936 579 886 621 T 777 682 Q 724 700 655 705 T 436 710 H 319 Q 183 710 183 709 Q 186 706 348 484 T 511 259 Q 517 250 513 244 L 490 216 Q 466 188 420 134 T 330 27 L 149 -187 Q 149 -188 362 -188 Q 388 -188 436 -188 T 506 -189 Q 679 -189 778 -162 T 936 -43 Q 946 -27 959 6 H 999 L 913 -249 L 489 -250 Q 65 -250 62 -248 Q 56 -246 56 -239 Q 56 -234 118 -161 Q 186 -81 245 -11 L 428 206 Q 428 207 242 462 L 57 717 L 56 728 Q 56 744 61 748 Z" /><path id="MJMATHI-6E" stroke-width="1" d="M 21 287 Q 22 293 24 303 T 36 341 T 56 388 T 89 425 T 135 442 Q 171 442 195 424 T 225 390 T 231 369 Q 231 367 232 367 L 243 378 Q 304 442 382 442 Q 436 442 469 415 T 503 336 T 465 179 T 427 52 Q 427 26 444 26 Q 450 26 453 27 Q 482 32 505 65 T 540 145 Q 542 153 560 153 Q 580 153 580 145 Q 580 144 576 130 Q 568 101 554 73 T 508 17 T 439 -10 Q 392 -10 371 17 T 350 73 Q 350 92 386 193 T 423 345 Q 423 404 379 404 H 374 Q 288 404 229 303 L 222 291 L 189 157 Q 156 26 151 16 Q 138 -11 108 -11 Q 95 -11 87 -5 T 76 7 T 74 17 Q 74 30 112 180 T 152 343 Q 153 348 153 366 Q 153 405 129 405 Q 91 405 66 305 Q 60 285 60 284 Q 58 278 41 278 H 27 Q 21 284 21 287 Z" /><path id="MJMATHI-69" stroke-width="1" d="M 184 600 Q 184 624 203 642 T 247 661 Q 265 661 277 649 T 290 619 Q 290 596 270 577 T 226 557 Q 211 557 198 567 T 184 600 Z M 21 287 Q 21 295 30 318 T 54 369 T 98 420 T 158 442 Q 197 442 223 419 T 250 357 Q 250 340 236 301 T 196 196 T 154 83 Q 149 61 149 51 Q 149 26 166 26 Q 175 26 185 29 T 208 43 T 235 78 T 260 137 Q 263 149 265 151 T 282 153 Q 302 153 302 143 Q 302 135 293 112 T 268 61 T 223 11 T 161 -11 Q 129 -11 102 10 T 74 74 Q 74 91 79 106 T 122 220 Q 160 321 166 341 T 173 380 Q 173 404 156 404 H 154 Q 124 404 99 371 T 61 287 Q 60 286 59 284 T 58 281 T 56 279 T 53 278 T 49 278 T 41 278 H 27 Q 21 284 21 287 Z" /><path id="MJMAIN-AF" stroke-width="1" d="M 69 544 V 590 H 430 V 544 H 69 Z" /><path id="MJMAIN-22C5" stroke-width="1" d="M 78 250 Q 78 274 95 292 T 138 310 Q 162 310 180 294 T 199 251 Q 199 226 182 208 T 139 190 T 96 207 T 78 250 Z" /><path id="MJMAIN-33" stroke-width="1" d="M 127 463 Q 100 463 85 480 T 69 524 Q 69 579 117 622 T 233 665 Q 268 665 277 664 Q 351 652 390 611 T 430 522 Q 430 470 396 421 T 302 350 L 299 348 Q 299 347 308 345 T 337 336 T 375 315 Q 457 262 457 175 Q 457 96 395 37 T 238 -22 Q 158 -22 100 21 T 42 130 Q 42 158 60 175 T 105 193 Q 133 193 151 175 T 169 130 Q 169 119 166 110 T 159 94 T 148 82 T 136 74 T 126 70 T 118 67 L 114 66 Q 165 21 238 21 Q 293 21 321 74 Q 338 107 338 175 V 195 Q 338 290 274 322 Q 259 328 213 329 L 171 330 L 168 332 Q 166 335 166 348 Q 166 366 174 366 Q 202 366 232 371 Q 266 376 294 413 T 322 525 V 533 Q 322 590 287 612 Q 265 626 240 626 Q 208 626 181 615 T 143 592 T 132 580 H 135 Q 138 579 143 578 T 153 573 T 165 566 T 175 555 T 183 540 T 186 520 Q 186 498 172 481 T 127 463 Z" /><path id="MJMAIN-36" stroke-width="1" d="M 42 313 Q 42 476 123 571 T 303 666 Q 372 666 402 630 T 432 550 Q 432 525 418 510 T 379 495 Q 356 495 341 509 T 326 548 Q 326 592 373 601 Q 351 623 311 626 Q 240 626 194 566 Q 147 500 147 364 L 148 360 Q 153 366 156 373 Q 197 433 263 433 H 267 Q 313 433 348 414 Q 372 400 396 374 T 435 317 Q 456 268 456 210 V 192 Q 456 169 451 149 Q 440 90 387 34 T 253 -22 Q 225 -22 199 -14 T 143 16 T 92 75 T 56 172 T 42 313 Z M 257 397 Q 227 397 205 380 T 171 335 T 154 278 T 148 216 Q 148 133 160 97 T 198 39 Q 222 21 251 21 Q 302 21 329 59 Q 342 77 347 104 T 352 209 Q 352 289 347 316 T 329 361 Q 302 397 257 397 Z" /><path id="MJSZ1-5B" stroke-width="1" d="M 202 -349 V 850 H 394 V 810 H 242 V -309 H 394 V -349 H 202 Z" /><path id="MJSZ1-5D" stroke-width="1" d="M 22 810 V 850 H 214 V -349 H 22 V -309 H 174 V 810 H 22 Z" /></defs><g fill="currentColor" stroke="currentColor" stroke-width="0" transform="matrix(1 0 0 -1 0 0)"><use x="0" y="0" xmlns:NS2="http://www.w3.org/1999/xlink" NS2:href="#MJMATHI-67" /><use transform="scale(0.707)" x="680" y="453" xmlns:NS3="http://www.w3.org/1999/xlink" NS3:href="#MJMAIN-2217" /><g transform="translate(477 -308)"><use transform="scale(0.707)" x="0" y="0" xmlns:NS4="http://www.w3.org/1999/xlink" NS4:href="#MJMATHI-70" /><use transform="scale(0.707)" x="503" y="0" xmlns:NS5="http://www.w3.org/1999/xlink" NS5:href="#MJMAIN-31" /></g><use x="1537" y="0" xmlns:NS6="http://www.w3.org/1999/xlink" NS6:href="#MJMAIN-2C" /><g transform="translate(2232)"><use x="0" y="0" xmlns:NS7="http://www.w3.org/1999/xlink" NS7:href="#MJMATHI-67" /><use transform="scale(0.707)" x="680" y="453" xmlns:NS8="http://www.w3.org/1999/xlink" NS8:href="#MJMAIN-2217" /><g transform="translate(477 -308)"><use transform="scale(0.707)" x="0" y="0" xmlns:NS9="http://www.w3.org/1999/xlink" NS9:href="#MJMATHI-70" /><use transform="scale(0.707)" x="503" y="0" xmlns:NS10="http://www.w3.org/1999/xlink" NS10:href="#MJMAIN-32" /></g></g><g transform="translate(0 -2627)"><use x="0" y="0" xmlns:NS11="http://www.w3.org/1999/xlink" NS11:href="#MJMATHI-70" /><use transform="scale(0.707)" x="712" y="-213" xmlns:NS12="http://www.w3.org/1999/xlink" NS12:href="#MJMAIN-31" /><use x="1235" y="0" xmlns:NS13="http://www.w3.org/1999/xlink" NS13:href="#MJMAIN-3D" /><use x="2291" y="0" xmlns:NS14="http://www.w3.org/1999/xlink" NS14:href="#MJMATHI-3D5" /><g transform="translate(3054)"><use xmlns:NS15="http://www.w3.org/1999/xlink" NS15:href="#MJSZ4-5B" /><g transform="translate(583)"><use x="0" y="0" xmlns:NS16="http://www.w3.org/1999/xlink" NS16:href="#MJMATHI-7A" /><use transform="scale(0.707)" x="658" y="-213" xmlns:NS17="http://www.w3.org/1999/xlink" NS17:href="#MJMAIN-30" /></g><use x="1725" y="0" xmlns:NS18="http://www.w3.org/1999/xlink" NS18:href="#MJMAIN-2B" /><g transform="translate(2503)"><g transform="translate(342)"><rect stroke="none" x="0" y="220" width="7924" height="60" /><g transform="translate(1575 854)"><use x="0" y="0" xmlns:NS19="http://www.w3.org/1999/xlink" NS19:href="#MJMATHI-7A" /><use transform="scale(0.707)" x="658" y="-213" xmlns:NS20="http://www.w3.org/1999/xlink" NS20:href="#MJMAIN-30" /><use x="1141" y="0" xmlns:NS21="http://www.w3.org/1999/xlink" NS21:href="#MJMAIN-2212" /><g transform="translate(2142)"><use x="0" y="0" xmlns:NS22="http://www.w3.org/1999/xlink" NS22:href="#MJMATHI-7A" /><g transform="translate(465 -187)"><use transform="scale(0.707)" x="0" y="0" xmlns:NS23="http://www.w3.org/1999/xlink" NS23:href="#MJMAIN-31" /><use transform="scale(0.707)" x="500" y="0" xmlns:NS24="http://www.w3.org/1999/xlink" NS24:href="#MJMAIN-2212" /><use transform="scale(0.707)" x="1279" y="0" xmlns:NS25="http://www.w3.org/1999/xlink" NS25:href="#MJMATHI-3B1" /><use transform="scale(0.707)" x="1919" y="0" xmlns:NS26="http://www.w3.org/1999/xlink" NS26:href="#MJMAIN-2F" /><use transform="scale(0.707)" x="2420" y="0" xmlns:NS27="http://www.w3.org/1999/xlink" NS27:href="#MJMAIN-32" /></g></g></g><g transform="translate(60 -742)"><use x="0" y="0" xmlns:NS28="http://www.w3.org/1999/xlink" NS28:href="#MJMAIN-31" /><use x="722" y="0" xmlns:NS29="http://www.w3.org/1999/xlink" NS29:href="#MJMAIN-2212" /><use x="1723" y="0" xmlns:NS30="http://www.w3.org/1999/xlink" NS30:href="#MJMATHI-61" /><use x="2252" y="0" xmlns:NS31="http://www.w3.org/1999/xlink" NS31:href="#MJMAIN-28" /><g transform="translate(2642)"><use x="0" y="0" xmlns:NS32="http://www.w3.org/1999/xlink" NS32:href="#MJMATHI-7A" /><use transform="scale(0.707)" x="658" y="-213" xmlns:NS33="http://www.w3.org/1999/xlink" NS33:href="#MJMAIN-30" /></g><use x="3784" y="0" xmlns:NS34="http://www.w3.org/1999/xlink" NS34:href="#MJMAIN-2212" /><g transform="translate(4784)"><use x="0" y="0" xmlns:NS35="http://www.w3.org/1999/xlink" NS35:href="#MJMATHI-7A" /><g transform="translate(465 -187)"><use transform="scale(0.707)" x="0" y="0" xmlns:NS36="http://www.w3.org/1999/xlink" NS36:href="#MJMAIN-31" /><use transform="scale(0.707)" x="500" y="0" xmlns:NS37="http://www.w3.org/1999/xlink" NS37:href="#MJMAIN-2212" /><use transform="scale(0.707)" x="1279" y="0" xmlns:NS38="http://www.w3.org/1999/xlink" NS38:href="#MJMATHI-3B1" /><use transform="scale(0.707)" x="1919" y="0" xmlns:NS39="http://www.w3.org/1999/xlink" NS39:href="#MJMAIN-2F" /><use transform="scale(0.707)" x="2420" y="0" xmlns:NS40="http://www.w3.org/1999/xlink" NS40:href="#MJMAIN-32" /></g></g><use x="7415" y="0" xmlns:NS41="http://www.w3.org/1999/xlink" NS41:href="#MJMAIN-29" /></g></g></g><use x="10890" y="-1" xmlns:NS42="http://www.w3.org/1999/xlink" NS42:href="#MJSZ4-5D" /></g></g><g transform="translate(0 -6058)"><use x="0" y="0" xmlns:NS43="http://www.w3.org/1999/xlink" NS43:href="#MJMATHI-70" /><use transform="scale(0.707)" x="712" y="-213" xmlns:NS44="http://www.w3.org/1999/xlink" NS44:href="#MJMAIN-32" /><use x="1235" y="0" xmlns:NS45="http://www.w3.org/1999/xlink" NS45:href="#MJMAIN-3D" /><use x="2291" y="0" xmlns:NS46="http://www.w3.org/1999/xlink" NS46:href="#MJMATHI-3D5" /><g transform="translate(3054)"><use xmlns:NS47="http://www.w3.org/1999/xlink" NS47:href="#MJSZ4-5B" /><g transform="translate(583)"><use x="0" y="0" xmlns:NS48="http://www.w3.org/1999/xlink" NS48:href="#MJMATHI-7A" /><use transform="scale(0.707)" x="658" y="-213" xmlns:NS49="http://www.w3.org/1999/xlink" NS49:href="#MJMAIN-30" /></g><use x="1725" y="0" xmlns:NS50="http://www.w3.org/1999/xlink" NS50:href="#MJMAIN-2B" /><g transform="translate(2503)"><g transform="translate(342)"><rect stroke="none" x="0" y="220" width="7924" height="60" /><g transform="translate(1575 854)"><use x="0" y="0" xmlns:NS51="http://www.w3.org/1999/xlink" NS51:href="#MJMATHI-7A" /><use transform="scale(0.707)" x="658" y="-213" xmlns:NS52="http://www.w3.org/1999/xlink" NS52:href="#MJMAIN-30" /><use x="1141" y="0" xmlns:NS53="http://www.w3.org/1999/xlink" NS53:href="#MJMAIN-2B" /><g transform="translate(2142)"><use x="0" y="0" xmlns:NS54="http://www.w3.org/1999/xlink" NS54:href="#MJMATHI-7A" /><g transform="translate(465 -187)"><use transform="scale(0.707)" x="0" y="0" xmlns:NS55="http://www.w3.org/1999/xlink" NS55:href="#MJMAIN-31" /><use transform="scale(0.707)" x="500" y="0" xmlns:NS56="http://www.w3.org/1999/xlink" NS56:href="#MJMAIN-2212" /><use transform="scale(0.707)" x="1279" y="0" xmlns:NS57="http://www.w3.org/1999/xlink" NS57:href="#MJMATHI-3B1" /><use transform="scale(0.707)" x="1919" y="0" xmlns:NS58="http://www.w3.org/1999/xlink" NS58:href="#MJMAIN-2F" /><use transform="scale(0.707)" x="2420" y="0" xmlns:NS59="http://www.w3.org/1999/xlink" NS59:href="#MJMAIN-32" /></g></g></g><g transform="translate(60 -742)"><use x="0" y="0" xmlns:NS60="http://www.w3.org/1999/xlink" NS60:href="#MJMAIN-31" /><use x="722" y="0" xmlns:NS61="http://www.w3.org/1999/xlink" NS61:href="#MJMAIN-2212" /><use x="1723" y="0" xmlns:NS62="http://www.w3.org/1999/xlink" NS62:href="#MJMATHI-61" /><use x="2252" y="0" xmlns:NS63="http://www.w3.org/1999/xlink" NS63:href="#MJMAIN-28" /><g transform="translate(2642)"><use x="0" y="0" xmlns:NS64="http://www.w3.org/1999/xlink" NS64:href="#MJMATHI-7A" /><use transform="scale(0.707)" x="658" y="-213" xmlns:NS65="http://www.w3.org/1999/xlink" NS65:href="#MJMAIN-30" /></g><use x="3784" y="0" xmlns:NS66="http://www.w3.org/1999/xlink" NS66:href="#MJMAIN-2B" /><g transform="translate(4784)"><use x="0" y="0" xmlns:NS67="http://www.w3.org/1999/xlink" NS67:href="#MJMATHI-7A" /><g transform="translate(465 -187)"><use transform="scale(0.707)" x="0" y="0" xmlns:NS68="http://www.w3.org/1999/xlink" NS68:href="#MJMAIN-31" /><use transform="scale(0.707)" x="500" y="0" xmlns:NS69="http://www.w3.org/1999/xlink" NS69:href="#MJMAIN-2212" /><use transform="scale(0.707)" x="1279" y="0" xmlns:NS70="http://www.w3.org/1999/xlink" NS70:href="#MJMATHI-3B1" /><use transform="scale(0.707)" x="1919" y="0" xmlns:NS71="http://www.w3.org/1999/xlink" NS71:href="#MJMAIN-2F" /><use transform="scale(0.707)" x="2420" y="0" xmlns:NS72="http://www.w3.org/1999/xlink" NS72:href="#MJMAIN-32" /></g></g><use x="7415" y="0" xmlns:NS73="http://www.w3.org/1999/xlink" NS73:href="#MJMAIN-29" /></g></g></g><use x="10890" y="-1" xmlns:NS74="http://www.w3.org/1999/xlink" NS74:href="#MJSZ4-5D" /></g></g><g transform="translate(0 -8624)"><use x="0" y="0" xmlns:NS75="http://www.w3.org/1999/xlink" NS75:href="#MJMATHI-7A" /><use transform="scale(0.707)" x="658" y="-213" xmlns:NS76="http://www.w3.org/1999/xlink" NS76:href="#MJMAIN-30" /><use x="1197" y="0" xmlns:NS77="http://www.w3.org/1999/xlink" NS77:href="#MJMAIN-3D" /><g transform="translate(2253)"><use x="0" y="0" xmlns:NS78="http://www.w3.org/1999/xlink" NS78:href="#MJMATHI-3D5" /><g transform="translate(596 412)"><use transform="scale(0.707)" x="0" y="0" xmlns:NS79="http://www.w3.org/1999/xlink" NS79:href="#MJMAIN-2212" /><use transform="scale(0.707)" x="778" y="0" xmlns:NS80="http://www.w3.org/1999/xlink" NS80:href="#MJMAIN-31" /></g></g><use x="3854" y="0" xmlns:NS81="http://www.w3.org/1999/xlink" NS81:href="#MJMAIN-5B" /><use x="4132" y="0" xmlns:NS82="http://www.w3.org/1999/xlink" NS82:href="#MJMAIN-23" /><use x="4966" y="0" xmlns:NS83="http://www.w3.org/1999/xlink" NS83:href="#MJMAIN-28" /><g transform="translate(5355)"><use x="0" y="0" xmlns:NS84="http://www.w3.org/1999/xlink" NS84:href="#MJMATHI-67" /><use transform="scale(0.707)" x="680" y="583" xmlns:NS85="http://www.w3.org/1999/xlink" NS85:href="#MJMAIN-2217" /></g><use x="6568" y="0" xmlns:NS86="http://www.w3.org/1999/xlink" NS86:href="#MJMAIN-3C" /><use x="7625" y="0" xmlns:NS87="http://www.w3.org/1999/xlink" NS87:href="#MJMATHI-47" /><use x="8411" y="0" xmlns:NS88="http://www.w3.org/1999/xlink" NS88:href="#MJMAIN-29" /><use x="8801" y="0" xmlns:NS89="http://www.w3.org/1999/xlink" NS89:href="#MJMAIN-2F" /><use x="9301" y="0" xmlns:NS90="http://www.w3.org/1999/xlink" NS90:href="#MJMATHI-6B" /><use x="9823" y="0" xmlns:NS91="http://www.w3.org/1999/xlink" NS91:href="#MJMAIN-5D" /></g><g transform="translate(0 -11049)"><use x="0" y="0" xmlns:NS92="http://www.w3.org/1999/xlink" NS92:href="#MJMATHI-61" /><use x="807" y="0" xmlns:NS93="http://www.w3.org/1999/xlink" NS93:href="#MJMAIN-3D" /><g transform="translate(1585)"><g transform="translate(397)"><rect stroke="none" x="0" y="220" width="10128" height="60" /><g transform="translate(1308 909)"><use x="0" y="0" xmlns:NS94="http://www.w3.org/1999/xlink" NS94:href="#MJSZ1-2211" /><use transform="scale(0.707)" x="1494" y="675" xmlns:NS95="http://www.w3.org/1999/xlink" NS95:href="#MJMATHI-6E" /><g transform="translate(1056 -287)"><use transform="scale(0.707)" x="0" y="0" xmlns:NS96="http://www.w3.org/1999/xlink" NS96:href="#MJMATHI-69" /><use transform="scale(0.707)" x="345" y="0" xmlns:NS97="http://www.w3.org/1999/xlink" NS97:href="#MJMAIN-3D" /><use transform="scale(0.707)" x="1124" y="0" xmlns:NS98="http://www.w3.org/1999/xlink" NS98:href="#MJMAIN-31" /></g><use x="2305" y="0" xmlns:NS99="http://www.w3.org/1999/xlink" NS99:href="#MJMAIN-28" /><g transform="translate(2694)"><use x="10" y="0" xmlns:NS100="http://www.w3.org/1999/xlink" NS100:href="#MJMATHI-67" /><use x="29" y="-10" xmlns:NS101="http://www.w3.org/1999/xlink" NS101:href="#MJMAIN-AF" /><g transform="translate(530 -242)"><use transform="scale(0.707)" x="0" y="0" xmlns:NS102="http://www.w3.org/1999/xlink" NS102:href="#MJMAIN-28" /><use transform="scale(0.707)" x="389" y="0" xmlns:NS103="http://www.w3.org/1999/xlink" NS103:href="#MJMAIN-22C5" /><use transform="scale(0.707)" x="668" y="0" xmlns:NS104="http://www.w3.org/1999/xlink" NS104:href="#MJMAIN-29" /></g></g><use x="4294" y="0" xmlns:NS105="http://www.w3.org/1999/xlink" NS105:href="#MJMAIN-2212" /><g transform="translate(5295)"><use x="0" y="0" xmlns:NS106="http://www.w3.org/1999/xlink" NS106:href="#MJMATHI-67" /><g transform="translate(477 -187)"><use transform="scale(0.707)" x="0" y="0" xmlns:NS107="http://www.w3.org/1999/xlink" NS107:href="#MJMAIN-28" /><use transform="scale(0.707)" x="389" y="0" xmlns:NS108="http://www.w3.org/1999/xlink" NS108:href="#MJMATHI-69" /><use transform="scale(0.707)" x="734" y="0" xmlns:NS109="http://www.w3.org/1999/xlink" NS109:href="#MJMAIN-29" /></g></g><g transform="translate(6668)"><use x="0" y="0" xmlns:NS110="http://www.w3.org/1999/xlink" NS110:href="#MJMAIN-29" /><use transform="scale(0.707)" x="550" y="513" xmlns:NS111="http://www.w3.org/1999/xlink" NS111:href="#MJMAIN-33" /></g></g><g transform="translate(60 -1100)"><use x="0" y="0" xmlns:NS112="http://www.w3.org/1999/xlink" NS112:href="#MJMAIN-36" /><g transform="translate(500)"><use xmlns:NS113="http://www.w3.org/1999/xlink" NS113:href="#MJSZ1-5B" /><g transform="translate(417)"><use x="0" y="0" xmlns:NS114="http://www.w3.org/1999/xlink" NS114:href="#MJSZ1-2211" /><use transform="scale(0.707)" x="1494" y="675" xmlns:NS115="http://www.w3.org/1999/xlink" NS115:href="#MJMATHI-6E" /><g transform="translate(1056 -287)"><use transform="scale(0.707)" x="0" y="0" xmlns:NS116="http://www.w3.org/1999/xlink" NS116:href="#MJMATHI-69" /><use transform="scale(0.707)" x="345" y="0" xmlns:NS117="http://www.w3.org/1999/xlink" NS117:href="#MJMAIN-3D" /><use transform="scale(0.707)" x="1124" y="0" xmlns:NS118="http://www.w3.org/1999/xlink" NS118:href="#MJMAIN-31" /></g></g><use x="2722" y="0" xmlns:NS119="http://www.w3.org/1999/xlink" NS119:href="#MJMAIN-28" /><g transform="translate(3112)"><use x="10" y="0" xmlns:NS120="http://www.w3.org/1999/xlink" NS120:href="#MJMATHI-67" /><use x="29" y="-10" xmlns:NS121="http://www.w3.org/1999/xlink" NS121:href="#MJMAIN-AF" /><g transform="translate(530 -242)"><use transform="scale(0.707)" x="0" y="0" xmlns:NS122="http://www.w3.org/1999/xlink" NS122:href="#MJMAIN-28" /><use transform="scale(0.707)" x="389" y="0" xmlns:NS123="http://www.w3.org/1999/xlink" NS123:href="#MJMAIN-22C5" /><use transform="scale(0.707)" x="668" y="0" xmlns:NS124="http://www.w3.org/1999/xlink" NS124:href="#MJMAIN-29" /></g></g><use x="4712" y="0" xmlns:NS125="http://www.w3.org/1999/xlink" NS125:href="#MJMAIN-2212" /><g transform="translate(5713)"><use x="0" y="0" xmlns:NS126="http://www.w3.org/1999/xlink" NS126:href="#MJMATHI-67" /><g transform="translate(477 -187)"><use transform="scale(0.707)" x="0" y="0" xmlns:NS127="http://www.w3.org/1999/xlink" NS127:href="#MJMAIN-28" /><use transform="scale(0.707)" x="389" y="0" xmlns:NS128="http://www.w3.org/1999/xlink" NS128:href="#MJMATHI-69" /><use transform="scale(0.707)" x="734" y="0" xmlns:NS129="http://www.w3.org/1999/xlink" NS129:href="#MJMAIN-29" /></g></g><g transform="translate(7085)"><use x="0" y="0" xmlns:NS130="http://www.w3.org/1999/xlink" NS130:href="#MJMAIN-29" /><use transform="scale(0.707)" x="550" y="408" xmlns:NS131="http://www.w3.org/1999/xlink" NS131:href="#MJMAIN-32" /></g><use x="7929" y="-1" xmlns:NS132="http://www.w3.org/1999/xlink" NS132:href="#MJSZ1-5D" /><g transform="translate(8346 577)"><use transform="scale(0.707)" x="0" y="0" xmlns:NS133="http://www.w3.org/1999/xlink" NS133:href="#MJMAIN-33" /><use transform="scale(0.707)" x="500" y="0" xmlns:NS134="http://www.w3.org/1999/xlink" NS134:href="#MJMAIN-2F" /><use transform="scale(0.707)" x="1001" y="0" xmlns:NS135="http://www.w3.org/1999/xlink" NS135:href="#MJMAIN-32" /></g></g></g></g></g></g></g></svg>