<svg xmlns="http://www.w3.org/2000/svg" role="img" aria-hidden="true" style="margin-left: -0.01ex;vertical-align: -38.55ex;font-size: 10pt;font-family: 'Microsoft Sans Serif';color: Black;" viewBox="-4.5 -1571.3 29010.7 18171.8" focusable="false" width="67.38ex" height="42.206ex" xmlns:xlink="http://www.w3.org/1999/xlink"><defs id="MathJax_SVG_glyphs"><path id="MJMATHI-65" stroke-width="1" d="M 39 168 Q 39 225 58 272 T 107 350 T 174 402 T 244 433 T 307 442 H 310 Q 355 442 388 420 T 421 355 Q 421 265 310 237 Q 261 224 176 223 Q 139 223 138 221 Q 138 219 132 186 T 125 128 Q 125 81 146 54 T 209 26 T 302 45 T 394 111 Q 403 121 406 121 Q 410 121 419 112 T 429 98 T 420 82 T 390 55 T 344 24 T 281 -1 T 205 -11 Q 126 -11 83 42 T 39 168 Z M 373 353 Q 367 405 305 405 Q 272 405 244 391 T 199 357 T 170 316 T 154 280 T 149 261 Q 149 260 169 260 Q 282 260 327 284 T 373 353 Z" /><path id="MJMATHI-69" stroke-width="1" d="M 184 600 Q 184 624 203 642 T 247 661 Q 265 661 277 649 T 290 619 Q 290 596 270 577 T 226 557 Q 211 557 198 567 T 184 600 Z M 21 287 Q 21 295 30 318 T 54 369 T 98 420 T 158 442 Q 197 442 223 419 T 250 357 Q 250 340 236 301 T 196 196 T 154 83 Q 149 61 149 51 Q 149 26 166 26 Q 175 26 185 29 T 208 43 T 235 78 T 260 137 Q 263 149 265 151 T 282 153 Q 302 153 302 143 Q 302 135 293 112 T 268 61 T 223 11 T 161 -11 Q 129 -11 102 10 T 74 74 Q 74 91 79 106 T 122 220 Q 160 321 166 341 T 173 380 Q 173 404 156 404 H 154 Q 124 404 99 371 T 61 287 Q 60 286 59 284 T 58 281 T 56 279 T 53 278 T 49 278 T 41 278 H 27 Q 21 284 21 287 Z" /><path id="MJMATHI-6A" stroke-width="1" d="M 297 596 Q 297 627 318 644 T 361 661 Q 378 661 389 651 T 403 623 Q 403 595 384 576 T 340 557 Q 322 557 310 567 T 297 596 Z M 288 376 Q 288 405 262 405 Q 240 405 220 393 T 185 362 T 161 325 T 144 293 L 137 279 Q 135 278 121 278 H 107 Q 101 284 101 286 T 105 299 Q 126 348 164 391 T 252 441 Q 253 441 260 441 T 272 442 Q 296 441 316 432 Q 341 418 354 401 T 367 348 V 332 L 318 133 Q 267 -67 264 -75 Q 246 -125 194 -164 T 75 -204 Q 25 -204 7 -183 T -12 -137 Q -12 -110 7 -91 T 53 -71 Q 70 -71 82 -81 T 95 -112 Q 95 -148 63 -167 Q 69 -168 77 -168 Q 111 -168 139 -140 T 182 -74 L 193 -32 Q 204 11 219 72 T 251 197 T 278 308 T 289 365 Q 289 372 288 376 Z" /><path id="MJMAIN-3D" stroke-width="1" d="M 56 347 Q 56 360 70 367 H 707 Q 722 359 722 347 Q 722 336 708 328 L 390 327 H 72 Q 56 332 56 347 Z M 56 153 Q 56 168 72 173 H 708 Q 722 163 722 153 Q 722 140 707 133 H 70 Q 56 140 56 153 Z" /><path id="MJMATHI-6E" stroke-width="1" d="M 21 287 Q 22 293 24 303 T 36 341 T 56 388 T 89 425 T 135 442 Q 171 442 195 424 T 225 390 T 231 369 Q 231 367 232 367 L 243 378 Q 304 442 382 442 Q 436 442 469 415 T 503 336 T 465 179 T 427 52 Q 427 26 444 26 Q 450 26 453 27 Q 482 32 505 65 T 540 145 Q 542 153 560 153 Q 580 153 580 145 Q 580 144 576 130 Q 568 101 554 73 T 508 17 T 439 -10 Q 392 -10 371 17 T 350 73 Q 350 92 386 193 T 423 345 Q 423 404 379 404 H 374 Q 288 404 229 303 L 222 291 L 189 157 Q 156 26 151 16 Q 138 -11 108 -11 Q 95 -11 87 -5 T 76 7 T 74 17 Q 74 30 112 180 T 152 343 Q 153 348 153 366 Q 153 405 129 405 Q 91 405 66 305 Q 60 285 60 284 Q 58 278 41 278 H 27 Q 21 284 21 287 Z" /><path id="MJMATHI-64" stroke-width="1" d="M 366 683 Q 367 683 438 688 T 511 694 Q 523 694 523 686 Q 523 679 450 384 T 375 83 T 374 68 Q 374 26 402 26 Q 411 27 422 35 Q 443 55 463 131 Q 469 151 473 152 Q 475 153 483 153 H 487 H 491 Q 506 153 506 145 Q 506 140 503 129 Q 490 79 473 48 T 445 8 T 417 -8 Q 409 -10 393 -10 Q 359 -10 336 5 T 306 36 L 300 51 Q 299 52 296 50 Q 294 48 292 46 Q 233 -10 172 -10 Q 117 -10 75 30 T 33 157 Q 33 205 53 255 T 101 341 Q 148 398 195 420 T 280 442 Q 336 442 364 400 Q 369 394 369 396 Q 370 400 396 505 T 424 616 Q 424 629 417 632 T 378 637 H 357 Q 351 643 351 645 T 353 664 Q 358 683 366 683 Z M 352 326 Q 329 405 277 405 Q 242 405 210 374 T 160 293 Q 131 214 119 129 Q 119 126 119 118 T 118 106 Q 118 61 136 44 T 179 26 Q 233 26 290 98 L 298 109 L 352 326 Z" /><path id="MJMAIN-64" stroke-width="1" d="M 376 495 Q 376 511 376 535 T 377 568 Q 377 613 367 624 T 316 637 H 298 V 660 Q 298 683 300 683 L 310 684 Q 320 685 339 686 T 376 688 Q 393 689 413 690 T 443 693 T 454 694 H 457 V 390 Q 457 84 458 81 Q 461 61 472 55 T 517 46 H 535 V 0 Q 533 0 459 -5 T 380 -11 H 373 V 44 L 365 37 Q 307 -11 235 -11 Q 158 -11 96 50 T 34 215 Q 34 315 97 378 T 244 442 Q 319 442 376 393 V 495 Z M 373 342 Q 328 405 260 405 Q 211 405 173 369 Q 146 341 139 305 T 131 211 Q 131 155 138 120 T 173 59 Q 203 26 251 26 Q 322 26 373 103 V 342 Z" /><path id="MJMAIN-69" stroke-width="1" d="M 69 609 Q 69 637 87 653 T 131 669 Q 154 667 171 652 T 188 609 Q 188 579 171 564 T 129 549 Q 104 549 87 564 T 69 609 Z M 247 0 Q 232 3 143 3 Q 132 3 106 3 T 56 1 L 34 0 H 26 V 46 H 42 Q 70 46 91 49 Q 100 53 102 60 T 104 102 V 205 V 293 Q 104 345 102 359 T 88 378 Q 74 385 41 385 H 30 V 408 Q 30 431 32 431 L 42 432 Q 52 433 70 434 T 106 436 Q 123 437 142 438 T 171 441 T 182 442 H 185 V 62 Q 190 52 197 50 T 232 46 H 255 V 0 H 247 Z" /><path id="MJMAIN-61" stroke-width="1" d="M 137 305 T 115 305 T 78 320 T 63 359 Q 63 394 97 421 T 218 448 Q 291 448 336 416 T 396 340 Q 401 326 401 309 T 402 194 V 124 Q 402 76 407 58 T 428 40 Q 443 40 448 56 T 453 109 V 145 H 493 V 106 Q 492 66 490 59 Q 481 29 455 12 T 400 -6 T 353 12 T 329 54 V 58 L 327 55 Q 325 52 322 49 T 314 40 T 302 29 T 287 17 T 269 6 T 247 -2 T 221 -8 T 190 -11 Q 130 -11 82 20 T 34 107 Q 34 128 41 147 T 68 188 T 116 225 T 194 253 T 304 268 H 318 V 290 Q 318 324 312 340 Q 290 411 215 411 Q 197 411 181 410 T 156 406 T 148 403 Q 170 388 170 359 Q 170 334 154 320 Z M 126 106 Q 126 75 150 51 T 209 26 Q 247 26 276 49 T 315 109 Q 317 116 318 175 Q 318 233 317 233 Q 309 233 296 232 T 251 223 T 193 203 T 147 166 T 126 106 Z" /><path id="MJMAIN-67" stroke-width="1" d="M 329 409 Q 373 453 429 453 Q 459 453 472 434 T 485 396 Q 485 382 476 371 T 449 360 Q 416 360 412 390 Q 410 404 415 411 Q 415 412 416 414 V 415 Q 388 412 363 393 Q 355 388 355 386 Q 355 385 359 381 T 368 369 T 379 351 T 388 325 T 392 292 Q 392 230 343 187 T 222 143 Q 172 143 123 171 Q 112 153 112 133 Q 112 98 138 81 Q 147 75 155 75 T 227 73 Q 311 72 335 67 Q 396 58 431 26 Q 470 -13 470 -72 Q 470 -139 392 -175 Q 332 -206 250 -206 Q 167 -206 107 -175 Q 29 -140 29 -75 Q 29 -39 50 -15 T 92 18 L 103 24 Q 67 55 67 108 Q 67 155 96 193 Q 52 237 52 292 Q 52 355 102 398 T 223 442 Q 274 442 318 416 L 329 409 Z M 299 343 Q 294 371 273 387 T 221 404 Q 192 404 171 388 T 145 343 Q 142 326 142 292 Q 142 248 149 227 T 179 192 Q 196 182 222 182 Q 244 182 260 189 T 283 207 T 294 227 T 299 242 Q 302 258 302 292 T 299 343 Z M 403 -75 Q 403 -50 389 -34 T 348 -11 T 299 -2 T 245 0 H 218 Q 151 0 138 -6 Q 118 -15 107 -34 T 95 -74 Q 95 -84 101 -97 T 122 -127 T 170 -155 T 250 -167 Q 319 -167 361 -139 T 403 -75 Z" /><path id="MJMAIN-6F" stroke-width="1" d="M 28 214 Q 28 309 93 378 T 250 448 Q 340 448 405 380 T 471 215 Q 471 120 407 55 T 250 -10 Q 153 -10 91 57 T 28 214 Z M 250 30 Q 372 30 372 193 V 225 V 250 Q 372 272 371 288 T 364 326 T 348 362 T 317 390 T 268 410 Q 263 411 252 411 Q 222 411 195 399 Q 152 377 139 338 T 126 246 V 226 Q 126 130 145 91 Q 177 30 250 30 Z" /><path id="MJMAIN-6E" stroke-width="1" d="M 41 46 H 55 Q 94 46 102 60 V 68 Q 102 77 102 91 T 102 122 T 103 161 T 103 203 Q 103 234 103 269 T 102 328 V 351 Q 99 370 88 376 T 43 385 H 25 V 408 Q 25 431 27 431 L 37 432 Q 47 433 65 434 T 102 436 Q 119 437 138 438 T 167 441 T 178 442 H 181 V 402 Q 181 364 182 364 T 187 369 T 199 384 T 218 402 T 247 421 T 285 437 Q 305 442 336 442 Q 450 438 463 329 Q 464 322 464 190 V 104 Q 464 66 466 59 T 477 49 Q 498 46 526 46 H 542 V 0 H 534 L 510 1 Q 487 2 460 2 T 422 3 Q 319 3 310 0 H 302 V 46 H 318 Q 379 46 379 62 Q 380 64 380 200 Q 379 335 378 343 Q 372 371 358 385 T 334 402 T 308 404 Q 263 404 229 370 Q 202 343 195 315 T 187 232 V 168 V 108 Q 187 78 188 68 T 191 55 T 200 49 Q 221 46 249 46 H 265 V 0 H 257 L 234 1 Q 210 2 183 2 T 145 3 Q 42 3 33 0 H 25 V 46 H 41 Z" /><path id="MJMAIN-6C" stroke-width="1" d="M 42 46 H 56 Q 95 46 103 60 V 68 Q 103 77 103 91 T 103 124 T 104 167 T 104 217 T 104 272 T 104 329 Q 104 366 104 407 T 104 482 T 104 542 T 103 586 T 103 603 Q 100 622 89 628 T 44 637 H 26 V 660 Q 26 683 28 683 L 38 684 Q 48 685 67 686 T 104 688 Q 121 689 141 690 T 171 693 T 182 694 H 185 V 379 Q 185 62 186 60 Q 190 52 198 49 Q 219 46 247 46 H 263 V 0 H 255 L 232 1 Q 209 2 183 2 T 145 3 T 107 3 T 57 1 L 34 0 H 26 V 46 H 42 Z" /><path id="MJMAIN-28" stroke-width="1" d="M 94 250 Q 94 319 104 381 T 127 488 T 164 576 T 202 643 T 244 695 T 277 729 T 302 750 H 315 H 319 Q 333 750 333 741 Q 333 738 316 720 T 275 667 T 226 581 T 184 443 T 167 250 T 184 58 T 225 -81 T 274 -167 T 316 -220 T 333 -241 Q 333 -250 318 -250 H 315 H 302 L 274 -226 Q 180 -141 137 -14 T 94 250 Z" /><path id="MJMAINB-56" stroke-width="1" d="M 592 686 H 604 Q 615 685 631 685 T 666 684 T 700 684 T 724 683 Q 829 683 835 686 H 843 V 624 H 744 L 611 315 Q 584 254 546 165 Q 492 40 482 19 T 461 -6 L 460 -7 H 409 Q 398 -4 391 9 Q 385 20 257 315 L 124 624 H 25 V 686 H 36 Q 57 683 190 683 Q 340 683 364 686 H 377 V 624 H 289 L 384 403 L 480 185 L 492 212 Q 504 240 529 298 T 575 405 L 670 624 H 582 V 686 H 592 Z" /><path id="MJMAIN-5E" stroke-width="1" d="M 112 560 L 249 694 L 257 686 Q 387 562 387 560 L 361 531 Q 359 532 303 581 L 250 627 L 195 580 Q 182 569 169 557 T 148 538 L 140 532 Q 138 530 125 546 L 112 560 Z" /><path id="MJSZ2-2C6" stroke-width="1" d="M 1004 603 Q 1004 600 999 583 T 991 565 L 960 574 Q 929 582 866 599 T 745 631 L 500 698 Q 497 698 254 631 Q 197 616 134 599 T 39 574 L 8 565 Q 5 565 0 582 T -5 603 L 26 614 Q 58 624 124 646 T 248 687 L 499 772 Q 999 604 1004 603 Z" /><path id="MJMAIN-29" stroke-width="1" d="M 60 749 L 64 750 Q 69 750 74 750 H 86 L 114 726 Q 208 641 251 514 T 294 250 Q 294 182 284 119 T 261 12 T 224 -76 T 186 -143 T 145 -194 T 113 -227 T 90 -246 Q 87 -249 86 -250 H 74 Q 66 -250 63 -250 T 58 -247 T 55 -238 Q 56 -237 66 -225 Q 221 -64 221 250 T 66 725 Q 56 737 55 738 Q 55 746 60 749 Z" /><path id="MJMAIN-2212" stroke-width="1" d="M 84 237 T 84 250 T 98 270 H 679 Q 694 262 694 250 T 679 230 H 98 Q 84 237 84 250 Z" /><path id="MJMAIN-32" stroke-width="1" d="M 109 429 Q 82 429 66 447 T 50 491 Q 50 562 103 614 T 235 666 Q 326 666 387 610 T 449 465 Q 449 422 429 383 T 381 315 T 301 241 Q 265 210 201 149 L 142 93 L 218 92 Q 375 92 385 97 Q 392 99 409 186 V 189 H 449 V 186 Q 448 183 436 95 T 421 3 V 0 H 50 V 19 V 31 Q 50 38 56 46 T 86 81 Q 115 113 136 137 Q 145 147 170 174 T 204 211 T 233 244 T 261 278 T 284 308 T 305 340 T 320 369 T 333 401 T 340 431 T 343 464 Q 343 527 309 573 T 212 619 Q 179 619 154 602 T 119 569 T 109 550 Q 109 549 114 549 Q 132 549 151 535 T 170 489 Q 170 464 154 447 T 109 429 Z" /><path id="MJMAIN-31" stroke-width="1" d="M 213 578 L 200 573 Q 186 568 160 563 T 102 556 H 83 V 602 H 102 Q 149 604 189 617 T 245 641 T 273 663 Q 275 666 285 666 Q 294 666 302 660 V 361 L 303 61 Q 310 54 315 52 T 339 48 T 401 46 H 427 V 0 H 416 Q 395 3 257 3 Q 121 3 100 0 H 88 V 46 H 114 Q 136 46 152 46 T 177 47 T 193 50 T 201 52 T 207 57 T 213 61 V 578 Z" /><path id="MJMAIN-2C" stroke-width="1" d="M 78 35 T 78 60 T 94 103 T 137 121 Q 165 121 187 96 T 210 8 Q 210 -27 201 -60 T 180 -117 T 154 -158 T 130 -185 T 117 -194 Q 113 -194 104 -185 T 95 -172 Q 95 -168 106 -156 T 131 -126 T 157 -76 T 173 -3 V 9 L 172 8 Q 170 7 167 6 T 161 3 T 152 1 T 140 0 Q 113 0 96 17 Z" /><path id="MJMAIN-2E" stroke-width="1" d="M 78 60 Q 78 84 95 102 T 138 120 Q 162 120 180 104 T 199 61 Q 199 36 182 18 T 139 0 T 96 17 T 78 60 Z" /><path id="MJMATHI-6B" stroke-width="1" d="M 121 647 Q 121 657 125 670 T 137 683 Q 138 683 209 688 T 282 694 Q 294 694 294 686 Q 294 679 244 477 Q 194 279 194 272 Q 213 282 223 291 Q 247 309 292 354 T 362 415 Q 402 442 438 442 Q 468 442 485 423 T 503 369 Q 503 344 496 327 T 477 302 T 456 291 T 438 288 Q 418 288 406 299 T 394 328 Q 394 353 410 369 T 442 390 L 458 393 Q 446 405 434 405 H 430 Q 398 402 367 380 T 294 316 T 228 255 Q 230 254 243 252 T 267 246 T 293 238 T 320 224 T 342 206 T 359 180 T 365 147 Q 365 130 360 106 T 354 66 Q 354 26 381 26 Q 429 26 459 145 Q 461 153 479 153 H 483 Q 499 153 499 144 Q 499 139 496 130 Q 455 -11 378 -11 Q 333 -11 305 15 T 277 90 Q 277 108 280 121 T 283 145 Q 283 167 269 183 T 234 206 T 200 217 T 182 220 H 180 Q 168 178 159 139 T 145 81 T 136 44 T 129 20 T 122 7 T 111 -2 Q 98 -11 83 -11 Q 66 -11 57 -1 T 48 16 Q 48 26 85 176 T 158 471 L 195 616 Q 196 629 188 632 T 149 637 H 144 Q 134 637 131 637 T 124 640 T 121 647 Z" /><path id="MJMAIN-66" stroke-width="1" d="M 273 0 Q 255 3 146 3 Q 43 3 34 0 H 26 V 46 H 42 Q 70 46 91 49 Q 99 52 103 60 Q 104 62 104 224 V 385 H 33 V 431 H 104 V 497 L 105 564 L 107 574 Q 126 639 171 668 T 266 704 Q 267 704 275 704 T 289 705 Q 330 702 351 679 T 372 627 Q 372 604 358 590 T 321 576 T 284 590 T 270 627 Q 270 647 288 667 H 284 Q 280 668 273 668 Q 245 668 223 647 T 189 592 Q 183 572 182 497 V 431 H 293 V 385 H 185 V 225 Q 185 63 186 61 T 189 57 T 194 54 T 199 51 T 206 49 T 213 48 T 222 47 T 231 47 T 241 46 T 251 46 H 282 V 0 H 273 Z" /><path id="MJMATHI-6C" stroke-width="1" d="M 117 59 Q 117 26 142 26 Q 179 26 205 131 Q 211 151 215 152 Q 217 153 225 153 H 229 Q 238 153 241 153 T 246 151 T 248 144 Q 247 138 245 128 T 234 90 T 214 43 T 183 6 T 137 -11 Q 101 -11 70 11 T 38 85 Q 38 97 39 102 L 104 360 Q 167 615 167 623 Q 167 626 166 628 T 162 632 T 157 634 T 149 635 T 141 636 T 132 637 T 122 637 Q 112 637 109 637 T 101 638 T 95 641 T 94 647 Q 94 649 96 661 Q 101 680 107 682 T 179 688 Q 194 689 213 690 T 243 693 T 254 694 Q 266 694 266 686 Q 266 675 193 386 T 118 83 Q 118 81 118 75 T 117 65 V 59 Z" /><path id="MJMAIN-2260" stroke-width="1" d="M 166 -215 T 159 -215 T 147 -212 T 141 -204 T 139 -197 Q 139 -190 144 -183 L 306 133 H 70 Q 56 140 56 153 Q 56 168 72 173 H 327 L 406 327 H 72 Q 56 332 56 347 Q 56 360 70 367 H 426 Q 597 702 602 707 Q 605 716 618 716 Q 625 716 630 712 T 636 703 T 638 696 Q 638 692 471 367 H 707 Q 722 359 722 347 Q 722 336 708 328 L 451 327 L 371 173 H 708 Q 722 163 722 153 Q 722 140 707 133 H 351 Q 175 -210 170 -212 Q 166 -215 159 -215 Z" /><path id="MJMATHI-55" stroke-width="1" d="M 107 637 Q 73 637 71 641 Q 70 643 70 649 Q 70 673 81 682 Q 83 683 98 683 Q 139 681 234 681 Q 268 681 297 681 T 342 682 T 362 682 Q 378 682 378 672 Q 378 670 376 658 Q 371 641 366 638 H 364 Q 362 638 359 638 T 352 638 T 343 637 T 334 637 Q 295 636 284 634 T 266 623 Q 265 621 238 518 T 184 302 T 154 169 Q 152 155 152 140 Q 152 86 183 55 T 269 24 Q 336 24 403 69 T 501 205 L 552 406 Q 599 598 599 606 Q 599 633 535 637 Q 511 637 511 648 Q 511 650 513 660 Q 517 676 519 679 T 529 683 Q 532 683 561 682 T 645 680 Q 696 680 723 681 T 752 682 Q 767 682 767 672 Q 767 650 759 642 Q 756 637 737 637 Q 666 633 648 597 Q 646 592 598 404 Q 557 235 548 205 Q 515 105 433 42 T 263 -22 Q 171 -22 116 34 T 60 167 V 183 Q 60 201 115 421 Q 164 622 164 628 Q 164 635 107 637 Z" /><path id="MJSZ2-2211" stroke-width="1" d="M 60 948 Q 63 950 665 950 H 1267 L 1325 815 Q 1384 677 1388 669 H 1348 L 1341 683 Q 1320 724 1285 761 Q 1235 809 1174 838 T 1033 881 T 882 898 T 699 902 H 574 H 543 H 251 L 259 891 Q 722 258 724 252 Q 725 250 724 246 Q 721 243 460 -56 L 196 -356 Q 196 -357 407 -357 Q 459 -357 548 -357 T 676 -358 Q 812 -358 896 -353 T 1063 -332 T 1204 -283 T 1307 -196 Q 1328 -170 1348 -124 H 1388 Q 1388 -125 1381 -145 T 1356 -210 T 1325 -294 L 1267 -449 L 666 -450 Q 64 -450 61 -448 Q 55 -446 55 -439 Q 55 -437 57 -433 L 590 177 Q 590 178 557 222 T 452 366 T 322 544 L 56 909 L 55 924 Q 55 945 60 948 Z" /><path id="MJMATHI-77" stroke-width="1" d="M 580 385 Q 580 406 599 424 T 641 443 Q 659 443 674 425 T 690 368 Q 690 339 671 253 Q 656 197 644 161 T 609 80 T 554 12 T 482 -11 Q 438 -11 404 5 T 355 48 Q 354 47 352 44 Q 311 -11 252 -11 Q 226 -11 202 -5 T 155 14 T 118 53 T 104 116 Q 104 170 138 262 T 173 379 Q 173 380 173 381 Q 173 390 173 393 T 169 400 T 158 404 H 154 Q 131 404 112 385 T 82 344 T 65 302 T 57 280 Q 55 278 41 278 H 27 Q 21 284 21 287 Q 21 293 29 315 T 52 366 T 96 418 T 161 441 Q 204 441 227 416 T 250 358 Q 250 340 217 250 T 184 111 Q 184 65 205 46 T 258 26 Q 301 26 334 87 L 339 96 V 119 Q 339 122 339 128 T 340 136 T 341 143 T 342 152 T 345 165 T 348 182 T 354 206 T 362 238 T 373 281 Q 402 395 406 404 Q 419 431 449 431 Q 468 431 475 421 T 483 402 Q 483 389 454 274 T 422 142 Q 420 131 420 107 V 100 Q 420 85 423 71 T 442 42 T 487 26 Q 558 26 600 148 Q 609 171 620 213 T 632 273 Q 632 306 619 325 T 593 357 T 580 385 Z" /><path id="MJMAINB-77" stroke-width="1" d="M 624 444 Q 636 441 722 441 Q 797 441 800 444 H 805 V 382 H 741 L 593 11 Q 592 10 590 8 T 586 4 T 584 2 T 581 0 T 579 -2 T 575 -3 T 571 -3 T 567 -4 T 561 -4 T 553 -4 H 542 Q 525 -4 518 6 T 490 70 Q 474 110 463 137 L 415 257 L 367 137 Q 357 111 341 72 Q 320 17 313 7 T 289 -4 H 277 Q 259 -4 253 -2 T 238 11 L 90 382 H 25 V 444 H 32 Q 47 441 140 441 Q 243 441 261 444 H 270 V 382 H 222 L 310 164 L 382 342 L 366 382 H 303 V 444 H 310 Q 322 441 407 441 Q 508 441 523 444 H 531 V 382 H 506 Q 481 382 481 380 Q 482 376 529 259 T 577 142 L 674 382 H 617 V 444 H 624 Z" /><path id="MJMATHI-3C7" stroke-width="1" d="M 576 -125 Q 576 -147 547 -175 T 487 -204 H 476 Q 394 -204 363 -157 Q 334 -114 293 26 L 284 59 Q 283 58 248 19 T 170 -66 T 92 -151 T 53 -191 Q 49 -194 43 -194 Q 36 -194 31 -189 T 25 -177 T 38 -154 T 151 -30 L 272 102 L 265 131 Q 189 405 135 405 Q 104 405 87 358 Q 86 351 68 351 Q 48 351 48 361 Q 48 369 56 386 T 89 423 T 148 442 Q 224 442 258 400 Q 276 375 297 320 T 330 222 L 341 180 Q 344 180 455 303 T 573 429 Q 579 431 582 431 Q 600 431 600 414 Q 600 407 587 392 T 477 270 Q 356 138 353 134 L 362 102 Q 392 -10 428 -89 T 490 -168 Q 504 -168 517 -156 T 536 -126 Q 539 -116 543 -115 T 557 -114 T 571 -115 Q 576 -118 576 -125 Z" /><path id="MJMAINB-55" stroke-width="1" d="M 570 686 Q 588 683 703 683 T 836 686 H 845 V 624 H 737 V 420 Q 737 390 737 345 T 738 284 Q 738 205 729 164 T 689 83 Q 614 -11 465 -11 Q 321 -11 240 51 T 148 207 Q 147 214 147 421 V 624 H 39 V 686 H 51 Q 75 683 226 683 Q 376 683 400 686 H 412 V 624 H 304 V 405 V 370 V 268 Q 304 181 311 146 T 346 87 Q 387 52 466 52 Q 642 52 667 195 Q 668 204 669 415 V 624 H 561 V 686 H 570 Z" /><path id="MJMAIN-2032" stroke-width="1" d="M 79 43 Q 73 43 52 49 T 30 61 Q 30 68 85 293 T 146 528 Q 161 560 198 560 Q 218 560 240 545 T 262 501 Q 262 496 260 486 Q 259 479 173 263 T 84 45 T 79 43 Z" /><path id="MJMAIN-74" stroke-width="1" d="M 27 422 Q 80 426 109 478 T 141 600 V 615 H 181 V 431 H 316 V 385 H 181 V 241 Q 182 116 182 100 T 189 68 Q 203 29 238 29 Q 282 29 292 100 Q 293 108 293 146 V 181 H 333 V 146 V 134 Q 333 57 291 17 Q 264 -10 221 -10 Q 187 -10 162 2 T 124 33 T 105 68 T 98 100 Q 97 107 97 248 V 385 H 18 V 422 H 27 Z" /><path id="MJMAIN-72" stroke-width="1" d="M 36 46 H 50 Q 89 46 97 60 V 68 Q 97 77 97 91 T 98 122 T 98 161 T 98 203 Q 98 234 98 269 T 98 328 L 97 351 Q 94 370 83 376 T 38 385 H 20 V 408 Q 20 431 22 431 L 32 432 Q 42 433 60 434 T 96 436 Q 112 437 131 438 T 160 441 T 171 442 H 174 V 373 Q 213 441 271 441 H 277 Q 322 441 343 419 T 364 373 Q 364 352 351 337 T 313 322 Q 288 322 276 338 T 263 372 Q 263 381 265 388 T 270 400 T 273 405 Q 271 407 250 401 Q 234 393 226 386 Q 179 341 179 207 V 154 Q 179 141 179 127 T 179 101 T 180 81 T 180 66 V 61 Q 181 59 183 57 T 188 54 T 193 51 T 200 49 T 207 48 T 216 47 T 225 47 T 235 46 T 245 46 H 276 V 0 H 267 Q 249 3 140 3 Q 37 3 28 0 H 20 V 46 H 36 Z" /><path id="MJMAIN-65" stroke-width="1" d="M 28 218 Q 28 273 48 318 T 98 391 T 163 433 T 229 448 Q 282 448 320 430 T 378 380 T 406 316 T 415 245 Q 415 238 408 231 H 126 V 216 Q 126 68 226 36 Q 246 30 270 30 Q 312 30 342 62 Q 359 79 369 104 L 379 128 Q 382 131 395 131 H 398 Q 415 131 415 121 Q 415 117 412 108 Q 393 53 349 21 T 250 -11 Q 155 -11 92 58 T 28 218 Z M 333 275 Q 322 403 238 411 H 236 Q 228 411 220 410 T 195 402 T 166 381 T 143 340 T 127 274 V 267 H 333 V 275 Z" /><path id="MJMAINB-63" stroke-width="1" d="M 447 131 H 458 Q 478 131 478 117 Q 478 112 471 95 T 439 51 T 377 9 Q 330 -6 286 -6 Q 196 -6 135 35 Q 39 96 39 222 Q 39 324 101 384 Q 169 453 286 453 Q 359 453 411 431 T 464 353 Q 464 319 445 302 T 395 284 Q 360 284 343 305 T 325 353 Q 325 380 338 396 H 333 Q 317 398 295 398 H 292 Q 280 398 271 397 T 245 390 T 218 373 T 197 338 T 183 283 Q 182 275 182 231 Q 182 199 184 180 T 193 132 T 220 85 T 270 57 Q 289 50 317 50 H 326 Q 385 50 414 115 Q 419 127 423 129 T 447 131 Z" /></defs><g fill="currentColor" stroke="currentColor" stroke-width="0" transform="matrix(1 0 0 -1 0 0)"><use x="0" y="0" xmlns:NS2="http://www.w3.org/1999/xlink" NS2:href="#MJMATHI-65" /><g transform="translate(466 -150)"><use transform="scale(0.707)" x="0" y="0" xmlns:NS3="http://www.w3.org/1999/xlink" NS3:href="#MJMATHI-69" /><use transform="scale(0.707)" x="345" y="0" xmlns:NS4="http://www.w3.org/1999/xlink" NS4:href="#MJMATHI-6A" /></g><use x="1380" y="0" xmlns:NS5="http://www.w3.org/1999/xlink" NS5:href="#MJMAIN-3D" /><g transform="translate(2158)"><g transform="translate(397)"><rect stroke="none" x="0" y="220" width="2268" height="60" /><g transform="translate(60 785)"><use x="0" y="0" xmlns:NS6="http://www.w3.org/1999/xlink" NS6:href="#MJMATHI-6E" /><g transform="translate(600 -150)"><use transform="scale(0.707)" x="0" y="0" xmlns:NS7="http://www.w3.org/1999/xlink" NS7:href="#MJMATHI-69" /><use transform="scale(0.707)" x="345" y="0" xmlns:NS8="http://www.w3.org/1999/xlink" NS8:href="#MJMATHI-6A" /></g><g transform="translate(1236)"><use x="0" y="0" xmlns:NS9="http://www.w3.org/1999/xlink" NS9:href="#MJMATHI-64" /><use transform="scale(0.707)" x="736" y="-213" xmlns:NS10="http://www.w3.org/1999/xlink" NS10:href="#MJMATHI-6A" /></g></g><g transform="translate(638 -686)"><use x="0" y="0" xmlns:NS11="http://www.w3.org/1999/xlink" NS11:href="#MJMATHI-6E" /><use transform="scale(0.707)" x="849" y="-213" xmlns:NS12="http://www.w3.org/1999/xlink" NS12:href="#MJMATHI-6A" /></g></g></g><g transform="translate(0 -2949)"><use xmlns:NS13="http://www.w3.org/1999/xlink" NS13:href="#MJMAIN-64" /><use x="556" y="0" xmlns:NS14="http://www.w3.org/1999/xlink" NS14:href="#MJMAIN-69" /><use x="835" y="0" xmlns:NS15="http://www.w3.org/1999/xlink" NS15:href="#MJMAIN-61" /><use x="1335" y="0" xmlns:NS16="http://www.w3.org/1999/xlink" NS16:href="#MJMAIN-67" /><use x="1836" y="0" xmlns:NS17="http://www.w3.org/1999/xlink" NS17:href="#MJMAIN-6F" /><use x="2336" y="0" xmlns:NS18="http://www.w3.org/1999/xlink" NS18:href="#MJMAIN-6E" /><use x="2893" y="0" xmlns:NS19="http://www.w3.org/1999/xlink" NS19:href="#MJMAIN-61" /><use x="3393" y="0" xmlns:NS20="http://www.w3.org/1999/xlink" NS20:href="#MJMAIN-6C" /><use x="3922" y="0" xmlns:NS21="http://www.w3.org/1999/xlink" NS21:href="#MJMAIN-28" /><g transform="translate(4311)"><use x="65" y="0" xmlns:NS22="http://www.w3.org/1999/xlink" NS22:href="#MJMAINB-56" /><use x="0" y="213" xmlns:NS23="http://www.w3.org/1999/xlink" NS23:href="#MJSZ2-2C6" /><use transform="scale(0.707)" x="1414" y="-213" xmlns:NS24="http://www.w3.org/1999/xlink" NS24:href="#MJMATHI-6A" /></g><g transform="translate(5703)"><use x="0" y="0" xmlns:NS25="http://www.w3.org/1999/xlink" NS25:href="#MJMAIN-29" /><g transform="translate(389 -150)"><use transform="scale(0.707)" x="0" y="0" xmlns:NS26="http://www.w3.org/1999/xlink" NS26:href="#MJMATHI-69" /><use transform="scale(0.707)" x="345" y="0" xmlns:NS27="http://www.w3.org/1999/xlink" NS27:href="#MJMATHI-69" /></g></g><use x="6959" y="0" xmlns:NS28="http://www.w3.org/1999/xlink" NS28:href="#MJMAIN-3D" /><g transform="translate(7738)"><g transform="translate(397)"><rect stroke="none" x="0" y="220" width="10405" height="60" /><g transform="translate(60 785)"><use x="0" y="0" xmlns:NS29="http://www.w3.org/1999/xlink" NS29:href="#MJMATHI-6E" /><g transform="translate(600 -150)"><use transform="scale(0.707)" x="0" y="0" xmlns:NS30="http://www.w3.org/1999/xlink" NS30:href="#MJMATHI-69" /><use transform="scale(0.707)" x="345" y="0" xmlns:NS31="http://www.w3.org/1999/xlink" NS31:href="#MJMATHI-6A" /></g><use x="1236" y="0" xmlns:NS32="http://www.w3.org/1999/xlink" NS32:href="#MJMAIN-28" /><g transform="translate(1625)"><use x="0" y="0" xmlns:NS33="http://www.w3.org/1999/xlink" NS33:href="#MJMATHI-6E" /><use transform="scale(0.707)" x="849" y="-213" xmlns:NS34="http://www.w3.org/1999/xlink" NS34:href="#MJMATHI-6A" /></g><use x="2840" y="0" xmlns:NS35="http://www.w3.org/1999/xlink" NS35:href="#MJMAIN-2212" /><g transform="translate(3841)"><use x="0" y="0" xmlns:NS36="http://www.w3.org/1999/xlink" NS36:href="#MJMATHI-6E" /><g transform="translate(600 -150)"><use transform="scale(0.707)" x="0" y="0" xmlns:NS37="http://www.w3.org/1999/xlink" NS37:href="#MJMATHI-69" /><use transform="scale(0.707)" x="345" y="0" xmlns:NS38="http://www.w3.org/1999/xlink" NS38:href="#MJMATHI-6A" /></g></g><use x="5077" y="0" xmlns:NS39="http://www.w3.org/1999/xlink" NS39:href="#MJMAIN-29" /><g transform="translate(5467)"><use x="0" y="0" xmlns:NS40="http://www.w3.org/1999/xlink" NS40:href="#MJMATHI-64" /><use transform="scale(0.707)" x="736" y="-213" xmlns:NS41="http://www.w3.org/1999/xlink" NS41:href="#MJMATHI-6A" /></g><use x="6379" y="0" xmlns:NS42="http://www.w3.org/1999/xlink" NS42:href="#MJMAIN-28" /><g transform="translate(6768)"><use x="0" y="0" xmlns:NS43="http://www.w3.org/1999/xlink" NS43:href="#MJMATHI-6E" /><use transform="scale(0.707)" x="849" y="-213" xmlns:NS44="http://www.w3.org/1999/xlink" NS44:href="#MJMATHI-6A" /></g><use x="7983" y="0" xmlns:NS45="http://www.w3.org/1999/xlink" NS45:href="#MJMAIN-2212" /><g transform="translate(8983)"><use x="0" y="0" xmlns:NS46="http://www.w3.org/1999/xlink" NS46:href="#MJMATHI-64" /><use transform="scale(0.707)" x="736" y="-213" xmlns:NS47="http://www.w3.org/1999/xlink" NS47:href="#MJMATHI-6A" /></g><use x="9896" y="0" xmlns:NS48="http://www.w3.org/1999/xlink" NS48:href="#MJMAIN-29" /></g><g transform="translate(2928 -808)"><use x="0" y="0" xmlns:NS49="http://www.w3.org/1999/xlink" NS49:href="#MJMATHI-6E" /><use transform="scale(0.707)" x="849" y="488" xmlns:NS50="http://www.w3.org/1999/xlink" NS50:href="#MJMAIN-32" /><use transform="scale(0.707)" x="849" y="-430" xmlns:NS51="http://www.w3.org/1999/xlink" NS51:href="#MJMATHI-6A" /><use x="1054" y="0" xmlns:NS52="http://www.w3.org/1999/xlink" NS52:href="#MJMAIN-28" /><g transform="translate(1443)"><use x="0" y="0" xmlns:NS53="http://www.w3.org/1999/xlink" NS53:href="#MJMATHI-6E" /><use transform="scale(0.707)" x="849" y="-213" xmlns:NS54="http://www.w3.org/1999/xlink" NS54:href="#MJMATHI-6A" /></g><use x="2658" y="0" xmlns:NS55="http://www.w3.org/1999/xlink" NS55:href="#MJMAIN-2212" /><use x="3659" y="0" xmlns:NS56="http://www.w3.org/1999/xlink" NS56:href="#MJMAIN-31" /><use x="4159" y="0" xmlns:NS57="http://www.w3.org/1999/xlink" NS57:href="#MJMAIN-29" /></g></g></g><use x="18661" y="0" xmlns:NS58="http://www.w3.org/1999/xlink" NS58:href="#MJMAIN-2C" /><use x="19356" y="0" xmlns:NS59="http://www.w3.org/1999/xlink" NS59:href="#MJMATHI-69" /><use x="19979" y="0" xmlns:NS60="http://www.w3.org/1999/xlink" NS60:href="#MJMAIN-3D" /><use x="21036" y="0" xmlns:NS61="http://www.w3.org/1999/xlink" NS61:href="#MJMAIN-31" /><use x="21536" y="0" xmlns:NS62="http://www.w3.org/1999/xlink" NS62:href="#MJMAIN-2C" /><use x="21981" y="0" xmlns:NS63="http://www.w3.org/1999/xlink" NS63:href="#MJMAIN-32" /><use x="22482" y="0" xmlns:NS64="http://www.w3.org/1999/xlink" NS64:href="#MJMAIN-2C" /><use x="22927" y="0" xmlns:NS65="http://www.w3.org/1999/xlink" NS65:href="#MJMAIN-2E" /><use x="23372" y="0" xmlns:NS66="http://www.w3.org/1999/xlink" NS66:href="#MJMAIN-2E" /><use x="23817" y="0" xmlns:NS67="http://www.w3.org/1999/xlink" NS67:href="#MJMAIN-2E" /><use x="24262" y="0" xmlns:NS68="http://www.w3.org/1999/xlink" NS68:href="#MJMATHI-6B" /><use x="25006" y="0" xmlns:NS69="http://www.w3.org/1999/xlink" NS69:href="#MJMAIN-2212" /><use x="26007" y="0" xmlns:NS70="http://www.w3.org/1999/xlink" NS70:href="#MJMAIN-31" /></g><g transform="translate(0 -6173)"><use xmlns:NS71="http://www.w3.org/1999/xlink" NS71:href="#MJMAIN-6F" /><use x="500" y="0" xmlns:NS72="http://www.w3.org/1999/xlink" NS72:href="#MJMAIN-66" /><use x="807" y="0" xmlns:NS73="http://www.w3.org/1999/xlink" NS73:href="#MJMAIN-66" /><use x="1363" y="0" xmlns:NS74="http://www.w3.org/1999/xlink" NS74:href="#MJMAIN-64" /><use x="1920" y="0" xmlns:NS75="http://www.w3.org/1999/xlink" NS75:href="#MJMAIN-69" /><use x="2198" y="0" xmlns:NS76="http://www.w3.org/1999/xlink" NS76:href="#MJMAIN-61" /><use x="2699" y="0" xmlns:NS77="http://www.w3.org/1999/xlink" NS77:href="#MJMAIN-67" /><use x="3199" y="0" xmlns:NS78="http://www.w3.org/1999/xlink" NS78:href="#MJMAIN-6F" /><use x="3700" y="0" xmlns:NS79="http://www.w3.org/1999/xlink" NS79:href="#MJMAIN-6E" /><use x="4256" y="0" xmlns:NS80="http://www.w3.org/1999/xlink" NS80:href="#MJMAIN-61" /><use x="4757" y="0" xmlns:NS81="http://www.w3.org/1999/xlink" NS81:href="#MJMAIN-6C" /><use x="5285" y="0" xmlns:NS82="http://www.w3.org/1999/xlink" NS82:href="#MJMAIN-28" /><g transform="translate(5675)"><use x="65" y="0" xmlns:NS83="http://www.w3.org/1999/xlink" NS83:href="#MJMAINB-56" /><use x="0" y="213" xmlns:NS84="http://www.w3.org/1999/xlink" NS84:href="#MJSZ2-2C6" /><use transform="scale(0.707)" x="1414" y="-213" xmlns:NS85="http://www.w3.org/1999/xlink" NS85:href="#MJMATHI-6A" /></g><g transform="translate(7067)"><use x="0" y="0" xmlns:NS86="http://www.w3.org/1999/xlink" NS86:href="#MJMAIN-29" /><g transform="translate(389 -150)"><use transform="scale(0.707)" x="0" y="0" xmlns:NS87="http://www.w3.org/1999/xlink" NS87:href="#MJMATHI-69" /><use transform="scale(0.707)" x="345" y="0" xmlns:NS88="http://www.w3.org/1999/xlink" NS88:href="#MJMATHI-6C" /></g></g><use x="8289" y="0" xmlns:NS89="http://www.w3.org/1999/xlink" NS89:href="#MJMAIN-3D" /><use x="9346" y="0" xmlns:NS90="http://www.w3.org/1999/xlink" NS90:href="#MJMAIN-2212" /><g transform="translate(10124)"><g transform="translate(120)"><rect stroke="none" x="0" y="220" width="7378" height="60" /><g transform="translate(60 785)"><use x="0" y="0" xmlns:NS91="http://www.w3.org/1999/xlink" NS91:href="#MJMATHI-6E" /><g transform="translate(600 -150)"><use transform="scale(0.707)" x="0" y="0" xmlns:NS92="http://www.w3.org/1999/xlink" NS92:href="#MJMATHI-69" /><use transform="scale(0.707)" x="345" y="0" xmlns:NS93="http://www.w3.org/1999/xlink" NS93:href="#MJMATHI-6A" /></g><g transform="translate(1236)"><use x="0" y="0" xmlns:NS94="http://www.w3.org/1999/xlink" NS94:href="#MJMATHI-6E" /><g transform="translate(600 -150)"><use transform="scale(0.707)" x="0" y="0" xmlns:NS95="http://www.w3.org/1999/xlink" NS95:href="#MJMATHI-6C" /><use transform="scale(0.707)" x="298" y="0" xmlns:NS96="http://www.w3.org/1999/xlink" NS96:href="#MJMATHI-6A" /></g></g><g transform="translate(2439)"><use x="0" y="0" xmlns:NS97="http://www.w3.org/1999/xlink" NS97:href="#MJMATHI-64" /><use transform="scale(0.707)" x="736" y="-213" xmlns:NS98="http://www.w3.org/1999/xlink" NS98:href="#MJMATHI-6A" /></g><use x="3351" y="0" xmlns:NS99="http://www.w3.org/1999/xlink" NS99:href="#MJMAIN-28" /><g transform="translate(3741)"><use x="0" y="0" xmlns:NS100="http://www.w3.org/1999/xlink" NS100:href="#MJMATHI-6E" /><use transform="scale(0.707)" x="849" y="-213" xmlns:NS101="http://www.w3.org/1999/xlink" NS101:href="#MJMATHI-6A" /></g><use x="4955" y="0" xmlns:NS102="http://www.w3.org/1999/xlink" NS102:href="#MJMAIN-2212" /><g transform="translate(5956)"><use x="0" y="0" xmlns:NS103="http://www.w3.org/1999/xlink" NS103:href="#MJMATHI-64" /><use transform="scale(0.707)" x="736" y="-213" xmlns:NS104="http://www.w3.org/1999/xlink" NS104:href="#MJMATHI-6A" /></g><use x="6868" y="0" xmlns:NS105="http://www.w3.org/1999/xlink" NS105:href="#MJMAIN-29" /></g><g transform="translate(1414 -808)"><use x="0" y="0" xmlns:NS106="http://www.w3.org/1999/xlink" NS106:href="#MJMATHI-6E" /><use transform="scale(0.707)" x="849" y="488" xmlns:NS107="http://www.w3.org/1999/xlink" NS107:href="#MJMAIN-32" /><use transform="scale(0.707)" x="849" y="-430" xmlns:NS108="http://www.w3.org/1999/xlink" NS108:href="#MJMATHI-6A" /><use x="1054" y="0" xmlns:NS109="http://www.w3.org/1999/xlink" NS109:href="#MJMAIN-28" /><g transform="translate(1443)"><use x="0" y="0" xmlns:NS110="http://www.w3.org/1999/xlink" NS110:href="#MJMATHI-6E" /><use transform="scale(0.707)" x="849" y="-213" xmlns:NS111="http://www.w3.org/1999/xlink" NS111:href="#MJMATHI-6A" /></g><use x="2658" y="0" xmlns:NS112="http://www.w3.org/1999/xlink" NS112:href="#MJMAIN-2212" /><use x="3659" y="0" xmlns:NS113="http://www.w3.org/1999/xlink" NS113:href="#MJMAIN-31" /><use x="4159" y="0" xmlns:NS114="http://www.w3.org/1999/xlink" NS114:href="#MJMAIN-29" /></g></g></g><use x="17742" y="0" xmlns:NS115="http://www.w3.org/1999/xlink" NS115:href="#MJMAIN-2C" /><use x="18438" y="0" xmlns:NS116="http://www.w3.org/1999/xlink" NS116:href="#MJMATHI-69" /><use x="18783" y="0" xmlns:NS117="http://www.w3.org/1999/xlink" NS117:href="#MJMAIN-2C" /><use x="19228" y="0" xmlns:NS118="http://www.w3.org/1999/xlink" NS118:href="#MJMATHI-6C" /><use x="19804" y="0" xmlns:NS119="http://www.w3.org/1999/xlink" NS119:href="#MJMAIN-3D" /><use x="20861" y="0" xmlns:NS120="http://www.w3.org/1999/xlink" NS120:href="#MJMAIN-31" /><use x="21361" y="0" xmlns:NS121="http://www.w3.org/1999/xlink" NS121:href="#MJMAIN-2C" /><use x="21806" y="0" xmlns:NS122="http://www.w3.org/1999/xlink" NS122:href="#MJMAIN-32" /><use x="22307" y="0" xmlns:NS123="http://www.w3.org/1999/xlink" NS123:href="#MJMAIN-2C" /><use x="22752" y="0" xmlns:NS124="http://www.w3.org/1999/xlink" NS124:href="#MJMAIN-2E" /><use x="23197" y="0" xmlns:NS125="http://www.w3.org/1999/xlink" NS125:href="#MJMAIN-2E" /><use x="23642" y="0" xmlns:NS126="http://www.w3.org/1999/xlink" NS126:href="#MJMAIN-2E" /><use x="24088" y="0" xmlns:NS127="http://www.w3.org/1999/xlink" NS127:href="#MJMATHI-6B" /><use x="24831" y="0" xmlns:NS128="http://www.w3.org/1999/xlink" NS128:href="#MJMAIN-2212" /><use x="25832" y="0" xmlns:NS129="http://www.w3.org/1999/xlink" NS129:href="#MJMAIN-31" /><use x="26333" y="0" xmlns:NS130="http://www.w3.org/1999/xlink" NS130:href="#MJMAIN-2C" /><use x="27028" y="0" xmlns:NS131="http://www.w3.org/1999/xlink" NS131:href="#MJMATHI-69" /><use x="27651" y="0" xmlns:NS132="http://www.w3.org/1999/xlink" NS132:href="#MJMAIN-2260" /><use x="28707" y="0" xmlns:NS133="http://www.w3.org/1999/xlink" NS133:href="#MJMATHI-6C" /></g><g transform="translate(0 -8810)"><use x="0" y="0" xmlns:NS134="http://www.w3.org/1999/xlink" NS134:href="#MJMATHI-55" /><use transform="scale(0.707)" x="966" y="-213" xmlns:NS135="http://www.w3.org/1999/xlink" NS135:href="#MJMATHI-69" /><use x="1305" y="0" xmlns:NS136="http://www.w3.org/1999/xlink" NS136:href="#MJMAIN-3D" /><g transform="translate(2361)"><use x="0" y="0" xmlns:NS137="http://www.w3.org/1999/xlink" NS137:href="#MJSZ2-2211" /><use transform="scale(0.707)" x="815" y="-1536" xmlns:NS138="http://www.w3.org/1999/xlink" NS138:href="#MJMATHI-6A" /></g><g transform="translate(3973)"><use x="0" y="0" xmlns:NS139="http://www.w3.org/1999/xlink" NS139:href="#MJMATHI-77" /><use transform="scale(0.707)" x="1013" y="-213" xmlns:NS140="http://www.w3.org/1999/xlink" NS140:href="#MJMATHI-6A" /></g><use x="5081" y="0" xmlns:NS141="http://www.w3.org/1999/xlink" NS141:href="#MJMAIN-28" /><g transform="translate(5470)"><use x="0" y="0" xmlns:NS142="http://www.w3.org/1999/xlink" NS142:href="#MJMATHI-64" /><g transform="translate(520 -150)"><use transform="scale(0.707)" x="0" y="0" xmlns:NS143="http://www.w3.org/1999/xlink" NS143:href="#MJMATHI-69" /><use transform="scale(0.707)" x="345" y="0" xmlns:NS144="http://www.w3.org/1999/xlink" NS144:href="#MJMATHI-6A" /></g></g><use x="6849" y="0" xmlns:NS145="http://www.w3.org/1999/xlink" NS145:href="#MJMAIN-2212" /><g transform="translate(7850)"><use x="0" y="0" xmlns:NS146="http://www.w3.org/1999/xlink" NS146:href="#MJMATHI-65" /><g transform="translate(466 -150)"><use transform="scale(0.707)" x="0" y="0" xmlns:NS147="http://www.w3.org/1999/xlink" NS147:href="#MJMATHI-69" /><use transform="scale(0.707)" x="345" y="0" xmlns:NS148="http://www.w3.org/1999/xlink" NS148:href="#MJMATHI-6A" /></g></g><use x="8952" y="0" xmlns:NS149="http://www.w3.org/1999/xlink" NS149:href="#MJMAIN-29" /></g><g transform="translate(0 -11558)"><use x="65" y="0" xmlns:NS150="http://www.w3.org/1999/xlink" NS150:href="#MJMAINB-56" /><use x="0" y="213" xmlns:NS151="http://www.w3.org/1999/xlink" NS151:href="#MJSZ2-2C6" /><use transform="scale(0.707)" x="1414" y="-213" xmlns:NS152="http://www.w3.org/1999/xlink" NS152:href="#MJMATHI-77" /><use x="1884" y="0" xmlns:NS153="http://www.w3.org/1999/xlink" NS153:href="#MJMAIN-3D" /><use x="2941" y="0" xmlns:NS154="http://www.w3.org/1999/xlink" NS154:href="#MJMAINB-77" /><g transform="translate(3772)"><use x="0" y="0" xmlns:NS155="http://www.w3.org/1999/xlink" NS155:href="#MJMAINB-56" /><use x="184" y="247" xmlns:NS156="http://www.w3.org/1999/xlink" NS156:href="#MJMAIN-5E" /></g><use x="4642" y="0" xmlns:NS157="http://www.w3.org/1999/xlink" NS157:href="#MJMAINB-77" /></g><g transform="translate(0 -13033)"><use x="0" y="0" xmlns:NS158="http://www.w3.org/1999/xlink" NS158:href="#MJMATHI-3C7" /><use transform="scale(0.707)" x="886" y="488" xmlns:NS159="http://www.w3.org/1999/xlink" NS159:href="#MJMAIN-32" /><g transform="translate(626 -327)"><use transform="scale(0.707)" x="0" y="0" xmlns:NS160="http://www.w3.org/1999/xlink" NS160:href="#MJMATHI-6B" /><use transform="scale(0.707)" x="521" y="0" xmlns:NS161="http://www.w3.org/1999/xlink" NS161:href="#MJMAIN-2212" /><use transform="scale(0.707)" x="1300" y="0" xmlns:NS162="http://www.w3.org/1999/xlink" NS162:href="#MJMAIN-31" /></g><use x="2277" y="0" xmlns:NS163="http://www.w3.org/1999/xlink" NS163:href="#MJMAIN-3D" /><g transform="translate(3333)"><use x="0" y="0" xmlns:NS164="http://www.w3.org/1999/xlink" NS164:href="#MJMAINB-55" /><use transform="scale(0.707)" x="1252" y="585" xmlns:NS165="http://www.w3.org/1999/xlink" NS165:href="#MJMAIN-2032" /></g><g transform="translate(4514)"><use x="0" y="0" xmlns:NS166="http://www.w3.org/1999/xlink" NS166:href="#MJMAINB-56" /><g transform="translate(869 413)"><use transform="scale(0.707)" x="0" y="0" xmlns:NS167="http://www.w3.org/1999/xlink" NS167:href="#MJMAIN-2212" /><use transform="scale(0.707)" x="778" y="0" xmlns:NS168="http://www.w3.org/1999/xlink" NS168:href="#MJMAIN-31" /></g><use transform="scale(0.707)" x="1229" y="-350" xmlns:NS169="http://www.w3.org/1999/xlink" NS169:href="#MJMATHI-77" /></g><use x="6387" y="0" xmlns:NS170="http://www.w3.org/1999/xlink" NS170:href="#MJMAINB-55" /></g><g transform="translate(0 -15375)"><use x="0" y="0" xmlns:NS171="http://www.w3.org/1999/xlink" NS171:href="#MJMATHI-3C7" /><use transform="scale(0.707)" x="886" y="488" xmlns:NS172="http://www.w3.org/1999/xlink" NS172:href="#MJMAIN-32" /><g transform="translate(626 -328)"><use transform="scale(0.707)" x="0" y="0" xmlns:NS173="http://www.w3.org/1999/xlink" NS173:href="#MJMAIN-31" /><g transform="translate(353)"><use transform="scale(0.707)" x="353" y="0" xmlns:NS174="http://www.w3.org/1999/xlink" NS174:href="#MJMAIN-74" /><use transform="scale(0.707)" x="743" y="0" xmlns:NS175="http://www.w3.org/1999/xlink" NS175:href="#MJMAIN-72" /><use transform="scale(0.707)" x="1135" y="0" xmlns:NS176="http://www.w3.org/1999/xlink" NS176:href="#MJMAIN-65" /><use transform="scale(0.707)" x="1580" y="0" xmlns:NS177="http://www.w3.org/1999/xlink" NS177:href="#MJMAIN-6E" /><use transform="scale(0.707)" x="2136" y="0" xmlns:NS178="http://www.w3.org/1999/xlink" NS178:href="#MJMAIN-64" /></g></g><use x="3262" y="0" xmlns:NS179="http://www.w3.org/1999/xlink" NS179:href="#MJMAIN-3D" /><g transform="translate(4040)"><g transform="translate(397)"><rect stroke="none" x="0" y="220" width="3044" height="60" /><g transform="translate(60 741)"><use x="0" y="0" xmlns:NS180="http://www.w3.org/1999/xlink" NS180:href="#MJMAIN-28" /><g transform="translate(389)"><use x="0" y="0" xmlns:NS181="http://www.w3.org/1999/xlink" NS181:href="#MJMAINB-63" /><use transform="scale(0.707)" x="723" y="513" xmlns:NS182="http://www.w3.org/1999/xlink" NS182:href="#MJMAIN-2032" /></g><use x="1195" y="0" xmlns:NS183="http://www.w3.org/1999/xlink" NS183:href="#MJMAINB-55" /><g transform="translate(2081)"><use x="0" y="0" xmlns:NS184="http://www.w3.org/1999/xlink" NS184:href="#MJMAIN-29" /><use transform="scale(0.707)" x="550" y="513" xmlns:NS185="http://www.w3.org/1999/xlink" NS185:href="#MJMAIN-32" /></g></g><g transform="translate(60 -978)"><use x="0" y="0" xmlns:NS186="http://www.w3.org/1999/xlink" NS186:href="#MJMAINB-63" /><use transform="scale(0.707)" x="723" y="408" xmlns:NS187="http://www.w3.org/1999/xlink" NS187:href="#MJMAIN-2032" /><g transform="translate(806)"><use x="65" y="0" xmlns:NS188="http://www.w3.org/1999/xlink" NS188:href="#MJMAINB-56" /><use x="0" y="213" xmlns:NS189="http://www.w3.org/1999/xlink" NS189:href="#MJSZ2-2C6" /><use transform="scale(0.707)" x="1414" y="-213" xmlns:NS190="http://www.w3.org/1999/xlink" NS190:href="#MJMATHI-77" /></g><use x="2413" y="0" xmlns:NS191="http://www.w3.org/1999/xlink" NS191:href="#MJMAINB-63" /></g></g></g></g></g></svg>