<?xml version="1.0" encoding="utf-8"?>
<svg width="566" viewBox="0 0 1132 800" xmlns="http://www.w3.org/2000/svg" height="400">
  <line x1="136" y1="689" x2="745" y2="689" style="stroke:#868686;" />
  <line x1="136" y1="80" x2="136" y2="689" style="stroke:#868686;" />
  <g transform="translate(136,696)">
    <text x="0" y="0" transform="rotate(0)">
      <tspan dy="0.8em" style="font-family:'Calibri',sans-serif;font-size:20px;fill:#000000;text-anchor:middle;">-0.15</tspan>
    </text>
  </g>
  <line x1="136" y1="696" x2="136" y2="689" style="stroke:#868686;" />
  <g transform="translate(257.8000108897686,696)">
    <text x="0" y="0" transform="rotate(0)">
      <tspan dy="0.8em" style="font-family:'Calibri',sans-serif;font-size:20px;fill:#000000;text-anchor:middle;">-0.10</tspan>
    </text>
  </g>
  <line x1="257.8000108897686" y1="696" x2="257.8000108897686" y2="689" style="stroke:#868686;" />
  <g transform="translate(379.60001270473003,696)">
    <text x="0" y="0" transform="rotate(0)">
      <tspan dy="0.8em" style="font-family:'Calibri',sans-serif;font-size:20px;fill:#000000;text-anchor:middle;">-0.05</tspan>
    </text>
  </g>
  <line x1="379.60001270473003" y1="696" x2="379.60001270473003" y2="689" style="stroke:#868686;" />
  <g transform="translate(501.40001451969147,696)">
    <text x="0" y="0" transform="rotate(0)">
      <tspan dy="0.8em" style="font-family:'Calibri',sans-serif;font-size:20px;fill:#000000;text-anchor:middle;">0.00</tspan>
    </text>
  </g>
  <line x1="501.40001451969147" y1="696" x2="501.40001451969147" y2="689" style="stroke:#868686;" />
  <g transform="translate(623.2000163346529,696)">
    <text x="0" y="0" transform="rotate(0)">
      <tspan dy="0.8em" style="font-family:'Calibri',sans-serif;font-size:20px;fill:#000000;text-anchor:middle;">0.05</tspan>
    </text>
  </g>
  <line x1="623.2000163346529" y1="696" x2="623.2000163346529" y2="689" style="stroke:#868686;" />
  <g transform="translate(745.0000181496143,696)">
    <text x="0" y="0" transform="rotate(0)">
      <tspan dy="0.8em" style="font-family:'Calibri',sans-serif;font-size:20px;fill:#000000;text-anchor:middle;">0.10</tspan>
    </text>
  </g>
  <line x1="745.0000181496143" y1="696" x2="745.0000181496143" y2="689" style="stroke:#868686;" />
  <g transform="translate(121,689)">
    <text x="0" y="0" transform="rotate(0)">
      <tspan dy="0.4em" style="font-family:'Calibri',sans-serif;font-size:20px;fill:#000000;text-anchor:end;">-0.15</tspan>
    </text>
  </g>
  <line x1="129" y1="689" x2="136" y2="689" style="stroke:#868686;" />
  <g transform="translate(121,567.1999891102314)">
    <text x="0" y="0" transform="rotate(0)">
      <tspan dy="0.4em" style="font-family:'Calibri',sans-serif;font-size:20px;fill:#000000;text-anchor:end;">-0.10</tspan>
    </text>
  </g>
  <line x1="129" y1="567.1999891102314" x2="136" y2="567.1999891102314" style="stroke:#868686;" />
  <g transform="translate(121,445.39998729526997)">
    <text x="0" y="0" transform="rotate(0)">
      <tspan dy="0.4em" style="font-family:'Calibri',sans-serif;font-size:20px;fill:#000000;text-anchor:end;">-0.05</tspan>
    </text>
  </g>
  <line x1="129" y1="445.39998729526997" x2="136" y2="445.39998729526997" style="stroke:#868686;" />
  <g transform="translate(121,323.59998548030853)">
    <text x="0" y="0" transform="rotate(0)">
      <tspan dy="0.4em" style="font-family:'Calibri',sans-serif;font-size:20px;fill:#000000;text-anchor:end;">0.00</tspan>
    </text>
  </g>
  <line x1="129" y1="323.59998548030853" x2="136" y2="323.59998548030853" style="stroke:#868686;" />
  <g transform="translate(121,201.7999836653471)">
    <text x="0" y="0" transform="rotate(0)">
      <tspan dy="0.4em" style="font-family:'Calibri',sans-serif;font-size:20px;fill:#000000;text-anchor:end;">0.05</tspan>
    </text>
  </g>
  <line x1="129" y1="201.7999836653471" x2="136" y2="201.7999836653471" style="stroke:#868686;" />
  <g transform="translate(121,79.99998185038567)">
    <text x="0" y="0" transform="rotate(0)">
      <tspan dy="0.4em" style="font-family:'Calibri',sans-serif;font-size:20px;fill:#000000;text-anchor:end;">0.10</tspan>
    </text>
  </g>
  <line x1="129" y1="79.99998185038567" x2="136" y2="79.99998185038567" style="stroke:#868686;" />
  <text x="440.5" y="723">
    <tspan dy="0.8em" style="font-family:'Calibri',sans-serif;font-size:20px;font-weight:bold;fill:#000000;text-anchor:middle;">Normal (Penicillin)</tspan>
  </text>
  <g transform="translate(77,384.5)">
    <text x="0" y="0" transform="rotate(-90)">
      <tspan dy="0" style="font-family:'Calibri',sans-serif;font-size:20px;font-weight:bold;fill:#000000;text-anchor:middle;">Observed (Penicillin)</tspan>
    </text>
  </g>
  <ellipse cx="283.2585754394531" cy="669.5119934082031" rx="6" ry="6" style="stroke:#40699C;fill:none;" />
  <ellipse cx="319.2138671875" cy="612.0223846435547" rx="6" ry="6" style="stroke:#40699C;fill:none;" />
  <ellipse cx="342.89385986328125" cy="465.6187744140625" rx="6" ry="6" style="stroke:#40699C;fill:none;" />
  <ellipse cx="361.2892761230469" cy="421.5271911621094" rx="6" ry="6" style="stroke:#40699C;fill:none;" />
  <ellipse cx="383.6597900390625" cy="412.02679443359375" rx="6" ry="6" style="stroke:#40699C;fill:none;" />
  <ellipse cx="402.41839599609375" cy="408.3727722167969" rx="6" ry="6" style="stroke:#40699C;fill:none;" />
  <ellipse cx="413.6622009277344" cy="404.7187805175781" rx="6" ry="6" style="stroke:#40699C;fill:none;" />
  <ellipse cx="424.1966247558594" cy="377.67919921875" rx="6" ry="6" style="stroke:#40699C;fill:none;" />
  <ellipse cx="434.1946716308594" cy="357.46038818359375" rx="6" ry="6" style="stroke:#40699C;fill:none;" />
  <ellipse cx="443.78570556640625" cy="351.3703918457031" rx="6" ry="6" style="stroke:#40699C;fill:none;" />
  <ellipse cx="453.07122802734375" cy="333.8311767578125" rx="6" ry="6" style="stroke:#40699C;fill:none;" />
  <ellipse cx="462.1343078613281" cy="332.3695983886719" rx="6" ry="6" style="stroke:#40699C;fill:none;" />
  <ellipse cx="471.0459289550781" cy="329.93359375" rx="6" ry="6" style="stroke:#40699C;fill:none;" />
  <ellipse cx="479.8695068359375" cy="323.5999755859375" rx="6" ry="6" style="stroke:#40699C;fill:none;" />
  <ellipse cx="488.66412353515625" cy="319.702392578125" rx="6" ry="6" style="stroke:#40699C;fill:none;" />
  <ellipse cx="497.4877014160156" cy="309.47119140625" rx="6" ry="6" style="stroke:#40699C;fill:none;" />
  <ellipse cx="506.3993225097656" cy="304.8427734375" rx="6" ry="6" style="stroke:#40699C;fill:none;" />
  <ellipse cx="515.46240234375" cy="303.1375732421875" rx="6" ry="6" style="stroke:#40699C;fill:none;" />
  <ellipse cx="524.7479248046875" cy="298.7527770996094" rx="6" ry="6" style="stroke:#40699C;fill:none;" />
  <ellipse cx="534.3389892578125" cy="291.4447937011719" rx="6" ry="6" style="stroke:#40699C;fill:none;" />
  <ellipse cx="544.3369750976562" cy="281.7008056640625" rx="6" ry="6" style="stroke:#40699C;fill:none;" />
  <ellipse cx="554.8714599609375" cy="279.75201416015625" rx="6" ry="6" style="stroke:#40699C;fill:none;" />
  <ellipse cx="566.115234375" cy="277.0723876953125" rx="6" ry="6" style="stroke:#40699C;fill:none;" />
  <ellipse cx="578.3116455078125" cy="276.34161376953125" rx="6" ry="6" style="stroke:#40699C;fill:none;" />
  <ellipse cx="591.8246459960938" cy="274.8800048828125" rx="6" ry="6" style="stroke:#40699C;fill:none;" />
  <ellipse cx="607.2443237304688" cy="263.67437744140625" rx="6" ry="6" style="stroke:#40699C;fill:none;" />
  <ellipse cx="625.6397705078125" cy="252.22515869140625" rx="6" ry="6" style="stroke:#40699C;fill:none;" />
  <ellipse cx="649.3197631835938" cy="193.76116943359375" rx="6" ry="6" style="stroke:#40699C;fill:none;" />
  <ellipse cx="685.2750244140625" cy="83.16680908203125" rx="6" ry="6" style="stroke:#40699C;fill:none;" />
  <line x1="136" y1="689" x2="745.0000181496143" y2="79.99998185038567" style="stroke:#868686;" />
</svg>
