<?xml version="1.0" encoding="utf-8"?>
<svg width="566" viewBox="0 0 1132 800" xmlns="http://www.w3.org/2000/svg" height="400">
  <line x1="120" y1="689" x2="729" y2="689" style="stroke:#868686;" />
  <line x1="120" y1="80" x2="120" y2="689" style="stroke:#868686;" />
  <g transform="translate(120,696)">
    <text x="0" y="0" transform="rotate(0)">
      <tspan dy="0.8em" style="font-family:'Calibri',sans-serif;font-size:20px;fill:#000000;text-anchor:middle;">2.4</tspan>
    </text>
  </g>
  <line x1="120" y1="696" x2="120" y2="689" style="stroke:#868686;" />
  <g transform="translate(202.3816754353909,696)">
    <text x="0" y="0" transform="rotate(0)">
      <tspan dy="0.8em" style="font-family:'Calibri',sans-serif;font-size:20px;fill:#000000;text-anchor:middle;">2.5</tspan>
    </text>
  </g>
  <line x1="202.3816754353909" y1="696" x2="202.3816754353909" y2="689" style="stroke:#868686;" />
  <g transform="translate(284.763350870782,696)">
    <text x="0" y="0" transform="rotate(0)">
      <tspan dy="0.8em" style="font-family:'Calibri',sans-serif;font-size:20px;fill:#000000;text-anchor:middle;">2.6</tspan>
    </text>
  </g>
  <line x1="284.763350870782" y1="696" x2="284.763350870782" y2="689" style="stroke:#868686;" />
  <g transform="translate(367.1452227195807,696)">
    <text x="0" y="0" transform="rotate(0)">
      <tspan dy="0.8em" style="font-family:'Calibri',sans-serif;font-size:20px;fill:#000000;text-anchor:middle;">2.7</tspan>
    </text>
  </g>
  <line x1="367.1452227195807" y1="696" x2="367.1452227195807" y2="689" style="stroke:#868686;" />
  <g transform="translate(449.5268981549714,696)">
    <text x="0" y="0" transform="rotate(0)">
      <tspan dy="0.8em" style="font-family:'Calibri',sans-serif;font-size:20px;fill:#000000;text-anchor:middle;">2.8</tspan>
    </text>
  </g>
  <line x1="449.5268981549714" y1="696" x2="449.5268981549714" y2="689" style="stroke:#868686;" />
  <g transform="translate(531.9087700037701,696)">
    <text x="0" y="0" transform="rotate(0)">
      <tspan dy="0.8em" style="font-family:'Calibri',sans-serif;font-size:20px;fill:#000000;text-anchor:middle;">2.9</tspan>
    </text>
  </g>
  <line x1="531.9087700037701" y1="696" x2="531.9087700037701" y2="689" style="stroke:#868686;" />
  <g transform="translate(614.2904454391612,696)">
    <text x="0" y="0" transform="rotate(0)">
      <tspan dy="0.8em" style="font-family:'Calibri',sans-serif;font-size:20px;fill:#000000;text-anchor:middle;">3.0</tspan>
    </text>
  </g>
  <line x1="614.2904454391612" y1="696" x2="614.2904454391612" y2="689" style="stroke:#868686;" />
  <g transform="translate(696.6721208745523,696)">
    <text x="0" y="0" transform="rotate(0)">
      <tspan dy="0.8em" style="font-family:'Calibri',sans-serif;font-size:20px;fill:#000000;text-anchor:middle;">3.1</tspan>
    </text>
  </g>
  <line x1="696.6721208745523" y1="696" x2="696.6721208745523" y2="689" style="stroke:#868686;" />
  <g transform="translate(105,689)">
    <text x="0" y="0" transform="rotate(0)">
      <tspan dy="0.4em" style="font-family:'Calibri',sans-serif;font-size:20px;fill:#000000;text-anchor:end;">2.4</tspan>
    </text>
  </g>
  <line x1="113" y1="689" x2="120" y2="689" style="stroke:#868686;" />
  <g transform="translate(105,536.7501361221157)">
    <text x="0" y="0" transform="rotate(0)">
      <tspan dy="0.4em" style="font-family:'Calibri',sans-serif;font-size:20px;fill:#000000;text-anchor:end;">2.6</tspan>
    </text>
  </g>
  <line x1="113" y1="536.7501361221157" x2="120" y2="536.7501361221157" style="stroke:#868686;" />
  <g transform="translate(105,384.5000907480771)">
    <text x="0" y="0" transform="rotate(0)">
      <tspan dy="0.4em" style="font-family:'Calibri',sans-serif;font-size:20px;fill:#000000;text-anchor:end;">2.8</tspan>
    </text>
  </g>
  <line x1="113" y1="384.5000907480771" x2="120" y2="384.5000907480771" style="stroke:#868686;" />
  <g transform="translate(105,232.25004537403856)">
    <text x="0" y="0" transform="rotate(0)">
      <tspan dy="0.4em" style="font-family:'Calibri',sans-serif;font-size:20px;fill:#000000;text-anchor:end;">3.0</tspan>
    </text>
  </g>
  <line x1="113" y1="232.25004537403856" x2="120" y2="232.25004537403856" style="stroke:#868686;" />
  <g transform="translate(105,80)">
    <text x="0" y="0" transform="rotate(0)">
      <tspan dy="0.4em" style="font-family:'Calibri',sans-serif;font-size:20px;fill:#000000;text-anchor:end;">3.2</tspan>
    </text>
  </g>
  <line x1="113" y1="80" x2="120" y2="80" style="stroke:#868686;" />
  <text x="424.5" y="723">
    <tspan dy="0.8em" style="font-family:'Calibri',sans-serif;font-size:20px;font-weight:bold;fill:#000000;text-anchor:middle;">Normal (Log Area Under Curve)</tspan>
  </text>
  <g transform="translate(77,384.5)">
    <text x="0" y="0" transform="rotate(-90)">
      <tspan dy="0" style="font-family:'Calibri',sans-serif;font-size:20px;font-weight:bold;fill:#000000;text-anchor:middle;">Observed (Log Area Under Curve)</tspan>
    </text>
  </g>
  <text x="424.5" y="20">
    <tspan dy="0.8em" style="font-family:'Calibri',sans-serif;font-size:29.333334px;font-weight:bold;fill:#000000;text-anchor:middle;">Normal Plot for Log(AUC)</tspan>
  </text>
  <ellipse cx="148.83447265625" cy="682.3724899291992" rx="6" ry="6" style="stroke:#40699C;fill:none;" />
  <ellipse cx="208.81539916992188" cy="632.2811889648438" rx="6" ry="6" style="stroke:#40699C;fill:none;" />
  <ellipse cx="250.1767120361328" cy="623.7446899414062" rx="6" ry="6" style="stroke:#40699C;fill:none;" />
  <ellipse cx="283.7846374511719" cy="544.5070953369141" rx="6" ry="6" style="stroke:#40699C;fill:none;" />
  <ellipse cx="313.3202819824219" cy="479.8494567871094" rx="6" ry="6" style="stroke:#40699C;fill:none;" />
  <ellipse cx="340.5791320800781" cy="461.7399597167969" rx="6" ry="6" style="stroke:#40699C;fill:none;" />
  <ellipse cx="366.65673828125" cy="457.5472106933594" rx="6" ry="6" style="stroke:#40699C;fill:none;" />
  <ellipse cx="392.3668518066406" cy="443.7239074707031" rx="6" ry="6" style="stroke:#40699C;fill:none;" />
  <ellipse cx="418.4446716308594" cy="418.30792236328125" rx="6" ry="6" style="stroke:#40699C;fill:none;" />
  <ellipse cx="445.70330810546875" cy="401.21514892578125" rx="6" ry="6" style="stroke:#40699C;fill:none;" />
  <ellipse cx="475.2391662597656" cy="391.4403076171875" rx="6" ry="6" style="stroke:#40699C;fill:none;" />
  <ellipse cx="508.8468933105469" cy="365.923583984375" rx="6" ry="6" style="stroke:#40699C;fill:none;" />
  <ellipse cx="550.2081909179688" cy="259.86138916015625" rx="6" ry="6" style="stroke:#40699C;fill:none;" />
  <ellipse cx="610.1893310546875" cy="126.25250244140625" rx="6" ry="6" style="stroke:#40699C;fill:none;" />
  <line x1="120" y1="689" x2="728.9999999999998" y2="80" style="stroke:#868686;" />
</svg>
